<?xml version="1.0" encoding="utf-8"?>
<!-- Generator: Adobe Illustrator 16.0.0, SVG Export Plug-In . SVG Version: 6.00 Build 0)  -->
<!DOCTYPE svg PUBLIC "-//W3C//DTD SVG 1.1//EN" "http://www.w3.org/Graphics/SVG/1.1/DTD/svg11.dtd">
<svg version="1.1" xmlns="http://www.w3.org/2000/svg" xmlns:xlink="http://www.w3.org/1999/xlink" x="0px" y="0px"
	 width="576.739px" height="355.5px" viewBox="0 0 576.739 355.5" enable-background="new 0 0 576.739 355.5" xml:space="preserve">
<g id="bg">
</g>
<g id="images">
	<g>
		<path fill="#FFFFFF" d="M388.646,184.889c-0.678,0.26-1.368,0.512-2.061,0.75c-0.737,0.25-1.534-0.145-1.787-0.881
			c-0.252-0.732,0.063-1.451,0.88-1.785c2.66-0.898,5.211-2.005,7.527-3.248c0.663-0.376,1.536-0.109,1.904,0.576
			c0.367,0.68,0.106,1.537-0.575,1.904C392.691,183.193,390.711,184.096,388.646,184.889z M378.478,187.773
			c-0.075,0.029-0.154,0.047-0.238,0.064c-2.793,0.538-5.666,0.916-8.54,1.114c-0.773,0.052-1.442-0.532-1.5-1.306
			c-0.054-0.779,0.531-1.445,1.308-1.505c2.757-0.187,5.518-0.55,8.198-1.063c0.764-0.146,1.5,0.352,1.649,1.113
			C379.485,186.873,379.105,187.533,378.478,187.773z M401.35,177.561c-0.536,0.205-1.175,0.067-1.568-0.404
			c-0.507-0.592-0.436-1.479,0.158-1.985c0.406-0.345,0.805-0.703,1.19-1.065c1.331-1.262,2.66-2.95,3.936-5.024
			c0.406-0.663,1.271-0.864,1.938-0.458c0.658,0.405,0.863,1.271,0.459,1.933c-1.41,2.287-2.891,4.167-4.405,5.595
			c-0.412,0.396-0.85,0.785-1.299,1.167C401.641,177.423,401.496,177.504,401.35,177.561z M361.67,188.93
			c-0.173,0.07-0.371,0.107-0.569,0.094c-2.92-0.154-5.797-0.496-8.56-1.017c-0.767-0.14-1.269-0.878-1.127-1.639
			c0.146-0.771,0.886-1.271,1.642-1.123c2.644,0.492,5.396,0.816,8.186,0.967c0.781,0.044,1.376,0.706,1.337,1.479
			C362.544,188.262,362.178,188.738,361.67,188.93z M410.481,163.562c-0.313,0.12-0.681,0.126-1.019-0.006
			c-0.724-0.281-1.078-1.097-0.795-1.823c0.995-2.547,1.822-5.195,2.438-7.864c0.175-0.758,0.937-1.23,1.688-1.053
			c0.751,0.174,1.228,0.931,1.052,1.688c-0.647,2.8-1.514,5.581-2.563,8.257C411.135,163.143,410.837,163.426,410.481,163.562z
			 M414.229,147.155c-0.185,0.07-0.386,0.106-0.591,0.091c-0.773-0.05-1.365-0.717-1.317-1.491c0.186-2.947,0.043-5.656-0.428-8.054
			c-0.149-0.763,0.359-1.519,1.115-1.65c0.765-0.146,1.5,0.348,1.645,1.113c0.519,2.627,0.673,5.577,0.479,8.766
			C415.093,146.497,414.725,146.967,414.229,147.155z M409.293,143.579c-0.036,0.012-0.066,0.024-0.097,0.031
			c-3.039,0.939-5.927,1.513-8.572,1.699c-0.781,0.061-1.451-0.524-1.506-1.304c-0.052-0.771,0.521-1.436,1.305-1.502
			c2.44-0.17,5.108-0.703,7.944-1.576c0.742-0.23,1.533,0.182,1.764,0.924C410.345,142.563,409.973,143.317,409.293,143.579z
			 M417.12,140.471c-0.674,0.257-1.447-0.038-1.765-0.703c-0.345-0.698-0.055-1.542,0.646-1.879c2.63-1.279,5.074-2.709,7.074-4.137
			c0.647-0.455,1.514-0.303,1.964,0.322c0.455,0.637,0.308,1.513-0.323,1.965c-2.124,1.52-4.718,3.035-7.483,4.377
			C417.194,140.437,417.161,140.455,417.12,140.471z M430.602,130.518c-0.467,0.183-1.019,0.105-1.425-0.248
			c-0.589-0.516-0.647-1.4-0.14-1.986c1.743-2.018,3.337-4.258,4.704-6.66c0.384-0.669,1.243-0.905,1.922-0.523
			c0.674,0.387,0.91,1.248,0.525,1.921c-1.466,2.562-3.161,4.954-5.024,7.105C431.004,130.311,430.812,130.438,430.602,130.518z
			 M392.717,144.168c-0.314,0.12-0.679,0.129-1.018-0.006c-1.21-0.477-2.329-1.107-3.326-1.875
			c-1.659-1.273-2.892-2.688-3.666-4.191c-0.358-0.688-0.084-1.537,0.609-1.892c0.666-0.346,1.533-0.086,1.887,0.604
			c0.587,1.135,1.559,2.23,2.888,3.25c0.786,0.603,1.679,1.107,2.643,1.49c0.729,0.283,1.077,1.101,0.787,1.822
			C393.374,143.756,393.075,144.031,392.717,144.168z M410.436,131.088c-0.548,0.212-1.19,0.062-1.59-0.418
			c-1.586-1.928-3.709-3.174-6.316-3.703c-0.762-0.154-1.253-0.898-1.102-1.661c0.162-0.761,0.915-1.248,1.658-1.096
			c3.257,0.663,5.927,2.235,7.934,4.672c0.49,0.607,0.407,1.489-0.192,1.981C410.707,130.965,410.573,131.037,410.436,131.088z
			 M438.961,115.959c-0.298,0.113-0.638,0.131-0.962,0.015c-0.734-0.247-1.128-1.053-0.869-1.784
			c0.908-2.645,1.533-5.312,1.857-7.917c0.093-0.773,0.8-1.325,1.562-1.223c0.774,0.095,1.316,0.79,1.224,1.562
			c-0.341,2.81-1.008,5.661-1.984,8.495C439.646,115.515,439.336,115.815,438.961,115.959z M387.598,130.957
			c-0.476,0.185-1.029,0.104-1.434-0.26c-0.583-0.514-0.638-1.402-0.121-1.982c1.835-2.073,4.668-3.619,7.904-4.273
			c0.762-0.151,1.6,0.317,1.757,1.074c0.163,0.759-0.239,1.469-0.985,1.645c0-0.002-0.207,0.041-0.207,0.041
			c-2.647,0.534-4.935,1.765-6.363,3.379C387.991,130.753,387.801,130.881,387.598,130.957z"/>
	</g>
	<g>
		<g>
			<g>
				<path fill="#E6F3FF" d="M227.236,123.67c-1.102-44.525-37.526-80.297-82.34-80.297c-44.775,0-81.202,35.771-82.308,80.297
					h-0.065v73.398h164.742V123.67H227.236z M144.896,179.796c-26.274,0-47.613-21.327-47.613-47.61
					c0-26.305,21.339-47.604,47.613-47.604c26.31,0,47.613,21.3,47.613,47.604C192.51,158.469,171.206,179.796,144.896,179.796z"/>
			</g>
		</g>
		<g>
			<g>
				<path fill="#004965" d="M144.901,183.445c-28.27,0-51.265-22.992-51.265-51.262c0-28.275,22.995-51.267,51.265-51.267
					s51.267,22.991,51.267,51.267C196.168,160.453,173.171,183.445,144.901,183.445z M144.901,88.231
					c-24.235,0-43.952,19.714-43.952,43.952c0,24.232,19.717,43.947,43.952,43.947c24.238,0,43.953-19.715,43.953-43.947
					C188.854,107.945,169.14,88.231,144.901,88.231z"/>
			</g>
		</g>
		<g>
			<g>
				<polygon fill="#FFFFFF" points="93.878,168.945 125.945,144.105 162.427,144.105 195.93,169.32 				"/>
			</g>
		</g>
		<g>
			<g>
				<path fill="#D4145A" d="M172.679,155.084c0,5.167-4.189,9.35-9.35,9.35h-36.854c-5.161,0-9.348-4.183-9.348-9.35v-10.516
					c0-5.162,4.187-9.346,9.348-9.346h36.854c5.16,0,9.35,4.184,9.35,9.346V155.084z"/>
			</g>
		</g>
		<g>
			<g>
				<circle fill="#B23500" cx="144.903" cy="149.828" r="14.605"/>
			</g>
		</g>
		<g>
			<g>
				<path d="M157.013,141.662c1.579,2.328,2.495,5.137,2.495,8.166c0,8.064-6.539,14.605-14.606,14.605
					c-8.065,0-14.604-6.541-14.604-14.605c0-2.79,0.777-5.392,2.135-7.61L157.013,141.662z"/>
			</g>
		</g>
		<g>
			<g>
				<path fill="#004965" d="M201.678,181.454c0,3.583-3.064,6.499-6.848,6.499H94.976c-3.784,0-6.847-2.916-6.847-6.499v-6.001
					c0-3.592,3.062-6.508,6.847-6.508h99.854c3.783,0,6.848,2.916,6.848,6.508V181.454z"/>
			</g>
		</g>
		<g>
			<g>
				<path fill="#FFB941" d="M147.521,135.479v-0.822c0-1.37-1.104-2.478-2.473-2.478c-1.367,0-2.476,1.107-2.476,2.478v0.786
					c-7.497,1.043-10.14,6.774-10.14,6.774c16.823,5.796,24.58-0.556,24.58-0.556C154.855,138.463,151.46,136.195,147.521,135.479z"
					/>
			</g>
		</g>
		<g>
			<g>
				<path fill="#004965" d="M221.688,131.031c0,1.496-1.214,2.715-2.714,2.715h-10.009c-1.5,0-2.713-1.219-2.713-2.715l0,0
					c0-1.502,1.213-2.717,2.713-2.717h10.009C220.474,128.314,221.688,129.529,221.688,131.031L221.688,131.031z"/>
			</g>
		</g>
		<g>
			<g>
				<path fill="#004965" d="M221.688,141.643c0,1.495-1.214,2.714-2.714,2.714h-10.009c-1.5,0-2.713-1.219-2.713-2.714l0,0
					c0-1.504,1.213-2.71,2.713-2.71h10.009C220.474,138.933,221.688,140.139,221.688,141.643L221.688,141.643z"/>
			</g>
		</g>
		<g>
			<g>
				<path fill="#004965" d="M221.688,153.045c0,1.502-1.214,2.713-2.714,2.713h-10.009c-1.5,0-2.713-1.211-2.713-2.713l0,0
					c0-1.5,1.213-2.712,2.713-2.712h10.009C220.474,150.333,221.688,151.545,221.688,153.045L221.688,153.045z"/>
			</g>
		</g>
	</g>
	<g>
		<g>
			<g>
				<path fill="#773800" d="M314.728,122.18c-1.55,0.336-23.753,15.415-32.626,17.496l4.439-12.264L314.728,122.18z"/>
			</g>
			<g>
				<g>
					<path fill="#FFE9BA" d="M340.692,242.789l-12.901-2.377c-0.064,0-0.064,0-0.126,0c-6.952-0.063-12.655-5.639-12.84-12.591
						v-9.458c15.216-9.393,25.867-31.381,25.867-57.005c0-34.196-18.913-51.603-42.278-51.603l0,0l0,0
						c-23.358,0-42.276,17.406-42.276,51.603c0,25.624,10.645,47.612,25.869,57.005v9.458c-0.188,6.952-5.889,12.527-12.842,12.591
						c-0.065,0-0.065,0-0.122,0l-12.905,2.377c-28.562,8.83-33.824,30-33.824,54.367v9.023h76.101l0,0h76.103v-9.023
						C374.517,272.789,369.254,251.619,340.692,242.789z"/>
				</g>
				<g>
					<path fill="#FFE9BA" d="M314.887,225.812c0,0,0-0.056-0.062-0.12v0.12C314.887,225.812,314.887,225.812,314.887,225.812z"/>
				</g>
			</g>
			<g>
				<g>
					<path fill="#FFE9BA" d="M329.482,203.202c-4.006,6.515-9.021,11.713-14.657,15.161v8.955
						c-3.254,1.067-6.637,1.627-10.084,1.627c-8.39,0-16.22-3.322-22.734-9.084v-1.498c4.944,2.814,10.337,4.323,15.973,4.323
						C310.509,222.687,321.841,215.104,329.482,203.202z"/>
				</g>
				<g>
					<path fill="#FFE9BA" d="M314.887,225.812c0,0,0,0-0.062,0v-0.12C314.887,225.756,314.887,225.812,314.887,225.812z"/>
				</g>
			</g>
			<g>
				<g>
					<path fill="#FFFFFF" d="M374.52,297.156v9.023H222.313v-9.023c0-24.367,5.262-45.537,33.824-54.367l12.905-2.377
						c0.057,0,0.057,0,0.122,0c2.508,0,4.889-0.757,6.894-2.131c5.008,6.951,13.15,11.463,22.355,11.463
						c9.206,0,17.356-4.512,22.36-11.463c2.008,1.374,4.392,2.131,6.891,2.131c0.067,0,0.067,0,0.126,0l12.901,2.377
						C369.261,251.619,374.52,272.789,374.52,297.156z"/>
				</g>
				<g>
					<path fill="#004965" d="M314.887,225.812c0,0,0,0-0.062,0v-0.12C314.887,225.756,314.887,225.812,314.887,225.812z"/>
				</g>
			</g>
			<g>
				<path fill="#FFE9BA" d="M281.752,218.238c-1.245-0.692-2.502-1.507-3.692-2.381c-0.058,0-0.058,0-0.13-0.064
					c-0.053-0.061-0.053-0.061-0.053-0.126c-0.257-0.249-0.508-0.563-0.757-0.87C278.623,216.042,280.128,217.234,281.752,218.238z"
					/>
			</g>
			<g>
				<path fill="#FFB941" d="M314.825,218.363v7.328c0.062,0.064,0.062,0.12,0.062,0.12s0,0-0.062,0v1.507
					c-3.254,1.067-6.637,1.627-10.084,1.627c-8.39,0-16.22-3.322-22.734-9.084c-1.375-1.253-2.694-2.566-3.947-4.004
					c-0.058,0-0.058,0-0.13-0.064c-0.053-0.061-0.053-0.061-0.053-0.126c-0.257-0.249-0.508-0.563-0.757-0.87
					c1.503,1.245,3.008,2.438,4.632,3.441c0.066,0.061,0.125,0.125,0.255,0.125c4.944,2.814,10.337,4.323,15.973,4.323
					C310.509,222.687,314.825,218.363,314.825,218.363z"/>
			</g>
			<g>
				<path fill="#773800" d="M320.052,122.18c0,0-31.604,6.238-47.762,22.704c-16.152,16.475-5.938,29.501-10.536,48.845
					c0,0-14.126-17.91-10.993-46.489c3.136-28.575,17.8-48.938,47.653-46.196c0,0,9.894-6.647,25.551-1.955
					c15.662,4.695,41.933,65.076,9.284,97.319C333.249,196.407,350.978,146.062,320.052,122.18z"/>
			</g>
			<g>
				<path fill="#FFE9BA" d="M266.098,179.573c0,6.058-2.728,10.979-6.102,10.979c-3.367,0-6.1-4.921-6.1-10.979
					c0-6.071,2.732-10.98,6.1-10.98C263.37,168.593,266.098,173.502,266.098,179.573z"/>
			</g>
			<g>
				<path fill="#FFE9BA" d="M342.938,179.573c0,6.058-2.732,10.979-6.106,10.979c-3.367,0-6.103-4.921-6.103-10.979
					c0-6.071,2.735-10.98,6.103-10.98C340.206,168.593,342.938,173.502,342.938,179.573z"/>
			</g>
			<g>
				<path fill="#773800" d="M267.033,149.227c0.352-1.379-1.595,1.798-10.6,18.862c0,0,0.292,1.104,1.354,1.276
					c1.768,0.28,2.209,1.892,7.458,10.208C265.245,179.573,262.801,166.021,267.033,149.227z"/>
			</g>
			<g>
				<path fill="#773800" d="M272.29,144.884c0,0-2.282,5.815-3.653,16.19c0,0-5.149-5.938-4.635-10.496
					S272.29,144.884,272.29,144.884z"/>
			</g>
			<g>
				<path fill="#FF5B0A" d="M276.059,238.281l11.369,67.898h27.854l5.492-67.898C320.774,238.281,301.002,262.326,276.059,238.281z"
					/>
			</g>
			<g>
				<g>
					<path fill="#004965" d="M310.558,262.326c0,1.737-1.399,3.137-3.131,3.137h-12.57c-1.733,0-3.138-1.399-3.138-3.137v-7.316
						c0-1.738,1.404-3.139,3.138-3.139h12.57c1.731,0,3.131,1.4,3.131,3.139V262.326z"/>
				</g>
				<g>
					<polygon fill="#004965" points="298.209,265.463 289.635,306.18 310.558,306.18 303.078,265.463 					"/>
				</g>
			</g>
			<g>
				<g>
					<rect x="338.611" y="274.698" fill="#36D2DE" width="4.891" height="17.753"/>
				</g>
				<g>
					<rect x="332.182" y="281.121" fill="#36D2DE" width="17.752" height="4.898"/>
				</g>
			</g>
		</g>
	</g>
	<g>
		<g>
			<g>
				<path fill="#FFE9BA" d="M310.529,275.031c0,0,0-0.064-0.057-0.12v0.12C310.529,275.031,310.529,275.031,310.529,275.031z"/>
			</g>
		</g>
		<g>
			<g>
				<path fill="#FFE9BA" d="M310.529,275.031c0,0,0,0-0.057,0v-0.12C310.529,274.967,310.529,275.031,310.529,275.031z"/>
			</g>
		</g>
		<g>
			<g>
				<path fill="#FFE9BA" d="M310.529,275.031c0,0,0,0-0.057,0v-0.12C310.529,274.967,310.529,275.031,310.529,275.031z"/>
			</g>
		</g>
		<g>
			<g>
				<path fill="#FFE9BA" d="M310.529,275.031c0,0,0,0-0.057,0v-0.12C310.529,274.967,310.529,275.031,310.529,275.031z"/>
			</g>
		</g>
		<g>
			<path fill="#FFE9BA" d="M279.27,267.881c-1.182-0.65-2.367-1.427-3.486-2.244c-0.056,0-0.056,0-0.119-0.059
				c-0.055-0.061-0.055-0.061-0.055-0.123c-0.237-0.234-0.475-0.535-0.712-0.822C276.313,265.812,277.732,266.93,279.27,267.881z"/>
		</g>
	</g>
	<g>
		<path fill="#FFFFFF" d="M201.125,46.901c0.091-0.007,0.182-0.01,0.278,0.004c2.704,0.294,5.614,0.536,8.902,0.735
			c0.826,0.051,1.454,0.765,1.406,1.588c-0.055,0.824-0.769,1.455-1.593,1.41c-3.329-0.201-6.292-0.449-9.044-0.748
			c-0.826-0.088-1.42-0.831-1.332-1.653C199.826,47.504,200.418,46.955,201.125,46.901z M219.092,48.078
			c0.053-0.003,0.118-0.008,0.177-0.003l1.358,0.058c2.548,0.102,5.105,0.209,7.655,0.337c0.83,0.048,1.465,0.751,1.422,1.579
			c-0.042,0.827-0.757,1.44-1.579,1.424c-2.539-0.135-5.081-0.236-7.623-0.34l-1.357-0.055c-0.828-0.037-1.472-0.735-1.438-1.564
			C217.739,48.746,218.342,48.135,219.092,48.078z M237.074,49.098c0.083-0.006,0.165-0.004,0.247,0.002
			c3.243,0.298,6.202,0.668,9.041,1.123c0.819,0.131,1.379,0.903,1.246,1.721c-0.135,0.816-0.91,1.367-1.721,1.239
			c-2.772-0.438-5.665-0.798-8.84-1.091c-0.822-0.078-1.431-0.807-1.357-1.631C235.76,49.719,236.356,49.152,237.074,49.098z
			 M254.831,52.018c0.158-0.012,0.329,0.004,0.493,0.047c2.546,0.665,5.557,1.688,8.716,2.944c0.768,0.303,1.146,1.176,0.837,1.945
			c-0.301,0.772-1.173,1.15-1.948,0.847c-3.045-1.218-5.946-2.191-8.37-2.831c-0.8-0.21-1.282-1.03-1.067-1.829
			C253.661,52.5,254.212,52.064,254.831,52.018z M271.614,58.568c0.258-0.02,0.522,0.023,0.772,0.146
			c2.758,1.35,5.465,2.798,8.046,4.309c0.718,0.416,0.956,1.33,0.538,2.05c-0.418,0.716-1.336,0.962-2.054,0.54
			c-2.512-1.472-5.157-2.884-7.853-4.203c-0.743-0.36-1.051-1.258-0.688-2.009C270.624,58.908,271.102,58.606,271.614,58.568z
			 M287.149,67.686c0.336-0.024,0.684,0.057,0.982,0.267c2.665,1.882,5.085,3.806,7.192,5.725c0.616,0.556,0.662,1.506,0.104,2.121
			c-0.564,0.606-1.511,0.656-2.122,0.101c-2.019-1.837-4.342-3.683-6.908-5.49c-0.68-0.482-0.839-1.418-0.364-2.091
			C286.309,67.934,286.719,67.719,287.149,67.686z M300.271,79.934c0.503-0.039,1.018,0.176,1.336,0.617
			c2.123,2.959,3.471,5.881,4.006,8.695c0.159,0.817-0.38,1.602-1.194,1.756c-0.81,0.15-1.597-0.381-1.757-1.192
			c-0.448-2.38-1.627-4.909-3.493-7.501c-0.486-0.67-0.335-1.612,0.34-2.1C299.737,80.047,300,79.954,300.271,79.934z"/>
	</g>
	<g>
		<g>
			<g>
				<g>
					<path fill="#004965" d="M418.794,168.484c-33.112,0-60.05-26.943-60.05-60.055c0-17.635,7.705-34.307,21.145-45.752l3.201,3.76
						c-12.338,10.498-19.413,25.803-19.413,41.992c0,30.389,24.728,55.12,55.117,55.12c30.399,0,55.126-24.731,55.126-55.12h4.932
						C478.852,141.541,451.909,168.484,418.794,168.484z"/>
				</g>
			</g>
		</g>
		<g>
			<g>
				<g>
					<path fill="#004965" d="M393.571,68.353c-3.36,4.976-10.124,6.28-15.1,2.917c-4.97-3.371-6.274-10.127-2.909-15.1
						c3.36-4.977,10.128-6.282,15.096-2.92C395.635,56.62,396.94,63.379,393.571,68.353z"/>
				</g>
			</g>
		</g>
		<g>
			<g>
				<g>
					<path fill="#00B6DC" d="M388.514,65.32c-1.541,2.281-4.646,2.88-6.924,1.338c-2.279-1.543-2.876-4.64-1.335-6.928
						c1.544-2.281,4.643-2.878,6.926-1.334S390.062,63.039,388.514,65.32z"/>
				</g>
			</g>
		</g>
		<g>
			<g>
				<g>
					<path fill="#B8ECFA" d="M467.701,112.102h-10.196c-2.739,0-10.008,0-20.517-36.227c-5.652-19.486-9.445-40.427-9.445-52.103
						c0-7.464,2.384-12.972,7.094-16.368c9.138-6.586,23.43-1.937,24.041-1.73l-2.344,7.017l1.171-3.513l-1.167,3.513
						c-3.125-1.028-12.362-2.91-17.387,0.724c-2.699,1.954-4.013,5.34-4.013,10.358c0,25.462,15.87,77.897,22.742,80.933h9.882
						L467.701,112.102z"/>
				</g>
			</g>
		</g>
		<g>
			<g>
				<g>
					<g>
						<path fill="#00B6DC" d="M475.186,113.334h-7.467c-2.089,0-10.214,0-10.214,0c-3.169,0-10.58,0-21.012-34.792
							c-0.787-2.61,0.695-5.364,3.306-6.146c2.607-0.781,5.357,0.701,6.143,3.313c6.2,20.674,11.023,27.166,12.362,27.923
							c-0.08-0.046-0.38-0.159-0.799-0.159c0,0,8.125,0,10.214,0h7.467V113.334z"/>
					</g>
				</g>
			</g>
		</g>
		<g>
			<g>
				<g>
					<path fill="#00B6DC" d="M472.888,10.386c-0.35,2.787-2.889,4.751-5.669,4.399l-13.31-1.687
						c-2.781-0.353-4.751-2.891-4.397-5.669l0,0c0.352-2.779,2.894-4.75,5.665-4.396l13.312,1.686
						C471.276,5.07,473.24,7.613,472.888,10.386L472.888,10.386z"/>
				</g>
			</g>
		</g>
		<g>
			<g>
				<g>
					<path fill="#00B6DC" d="M474.661,127.003c-2.773-0.386-4.715-2.947-4.324-5.72l1.843-13.295
						c0.386-2.772,2.953-4.713,5.723-4.326l0,0c2.776,0.386,4.716,2.947,4.332,5.717l-1.854,13.297
						C479.997,125.45,477.436,127.39,474.661,127.003L474.661,127.003z"/>
				</g>
			</g>
		</g>
		<g>
			<g>
				<g>
					<path fill="#B8ECFA" d="M491.497,112.102h-10.053l-0.14-7.396h10.019c6.867-3.035,22.738-55.471,22.738-80.933
						c0-5.021-1.313-8.415-4.023-10.368c-6.007-4.333-17.263-0.748-17.373-0.714l-2.342-7.017
						c0.604-0.202,14.897-4.855,24.039,1.732c4.715,3.395,7.095,8.902,7.095,16.366c0,11.676-3.794,32.616-9.446,52.103
						C501.502,112.102,494.23,112.102,491.497,112.102z"/>
				</g>
			</g>
		</g>
		<g>
			<g>
				<g>
					<g>
						<path fill="#00B6DC" d="M491.497,113.334c0,0-8.073,0-10.214,0h-6.612v-9.861h6.612c2.141,0,10.214,0,10.214,0
							c-0.426,0-0.719,0.113-0.798,0.159c1.335-0.757,6.161-7.249,12.361-27.923c0.786-2.609,3.537-4.095,6.139-3.313
							c2.612,0.782,4.097,3.536,3.311,6.146C502.075,113.334,494.658,113.334,491.497,113.334z"/>
					</g>
				</g>
			</g>
		</g>
		<g>
			<g>
				<g>
					<path fill="#00B6DC" d="M479.104,10.386c0.349,2.787,2.89,4.751,5.674,4.399l13.31-1.687c2.774-0.353,4.745-2.891,4.395-5.669
						l0,0c-0.352-2.779-2.893-4.75-5.671-4.396l-13.31,1.686C480.719,5.07,478.752,7.613,479.104,10.386L479.104,10.386z"/>
				</g>
			</g>
		</g>
	</g>
	<g>
		<g>
			<g>
				<g>
					<path fill="#004965" d="M518.559,330.374c0,1.499-1.211,2.714-2.709,2.714H403.488c-1.5,0-2.71-1.215-2.71-2.714V195.471
						c0-1.496,1.21-2.707,2.71-2.707H515.85c1.498,0,2.709,1.211,2.709,2.707V330.374z"/>
				</g>
			</g>
		</g>
		<g>
			<g>
				<path fill="#FFFFFF" d="M486.566,281.668c11.629-14.422,30.852-55.35-6.352-68.375c-10.129-2.479-17.879-5.573-34.725-1.027
					c-5.869,1.586-24.131,16.431-20.2,30.1c0.233,5.014,2.298,6.165,1.368,10.428c-0.933,4.262-8.04,9.29-8.248,11.975
					c-0.206,2.684,4.652,4.033,5.685,4.854c1.033,0.828-1.807,3.852-1.807,4.681c0,0.83,2.658,0.849,2.245,1.474
					c-0.414,0.617-1.552,1.99-0.932,3.022c0.622,1.029,2.25,0.227,1.832,2.711c-0.414,2.481-1.444,9.2,6.617,10.233
					c8.06,1.034,11.37,0.1,12.608,5.27c1.243,5.172-3,16.952-3,16.952c-0.128,0.181-0.732,1.706,0.857,1.706h40.36
					c0.525,0,0.959-0.486,0.959-1.088C483.836,314.184,475.957,294.823,486.566,281.668z"/>
			</g>
		</g>
		<path fill="#004965" d="M461.656,221.487c0.157,3.444,3.022,6.329,6.65,6.643c0.885,0.076,1.558,0.8,1.558,1.681
			c0,0.446-0.188,0.879-0.515,1.185c-0.324,0.308-0.748,0.459-1.191,0.435c-5.543-0.406-9.876-4.909-9.876-10.246v-0.057
			c-1.147-0.363-2.331-0.544-3.527-0.544c-6.137,0-11.146,4.675-11.33,10.496c2.931,3.494,3.093,8.788,0.348,12.446
			c-0.261,0.342-0.64,0.552-1.066,0.605c-0.452,0.054-0.917-0.079-1.273-0.363c-0.679-0.552-0.822-1.575-0.317-2.278
			c1.974-2.698,1.579-6.618-0.844-8.917c-4.131,0.972-7.087,4.545-7.087,8.646c0,4.917,4.188,8.917,9.336,8.917l39.815-0.003
			c5.146,0,9.332-3.997,9.332-8.914v-9.665c0-4.918-4.186-8.915-9.332-8.915c-0.44,0-0.867,0.042-1.291,0.099l-0.068,0.012
			c-0.727,0.288-1.302,0.803-1.635,1.461c-0.373,0.73-0.409,1.552-0.112,2.328c0.308,0.807,0.936,1.461,1.763,1.839
			c2.193,1.027,3.852,2.779,4.679,4.937c0.838,2.18,0.723,4.555-0.324,6.621c-1.043,2.066-2.88,3.602-5.176,4.322
			c-1.987,0.632-4.088,0.592-6.073-0.117c-0.886-0.322-1.323-1.42-0.902-2.232c0.373-0.758,1.318-1.11,2.191-0.818
			c1.231,0.404,2.531,0.416,3.754,0.029c1.422-0.446,2.558-1.389,3.191-2.645c0.628-1.242,0.691-2.668,0.189-4.006
			c-0.52-1.354-1.575-2.456-2.966-3.1c-1.629-0.762-2.862-2.064-3.473-3.672c-0.624-1.629-0.534-3.406,0.24-4.951
			c0.489-0.967,1.228-1.786,2.134-2.396c-2.105-1.945-4.914-3.039-7.86-3.039C467.113,217.309,463.796,218.863,461.656,221.487z
			 M459.933,233.93l-0.004,0.253c-0.065,1.741-0.8,3.404-2.071,4.676c-0.658,0.655-1.04,1.507-1.074,2.392c0,0.004,0,0.008,0,0.012
			c0,0.924,0.299,1.658,0.834,2.195c0.571,0.568,1.355,0.864,2.206,0.829c0.688-0.025,1.358-0.259,1.938-0.674
			c0.707-0.519,1.662-0.465,2.259,0.133c0.305,0.303,0.471,0.707,0.471,1.136c0,0.499-0.224,0.965-0.614,1.272
			c-1.178,0.908-2.556,1.412-3.992,1.464c-1.772,0.072-3.424-0.561-4.644-1.783c-1.154-1.154-1.791-2.713-1.791-4.391l0.007-0.257
			c0.062-1.737,0.798-3.396,2.07-4.669c0.656-0.653,1.041-1.501,1.07-2.391c0-0.005,0-0.008,0-0.012
			c0-0.928-0.297-1.658-0.832-2.195c-0.572-0.571-1.352-0.867-2.206-0.834c-0.687,0.027-1.354,0.263-1.935,0.682
			c-0.717,0.516-1.666,0.459-2.26-0.129c-0.676-0.685-0.582-1.846,0.15-2.414c1.174-0.909,2.551-1.415,3.986-1.469
			c1.777-0.064,3.427,0.571,4.64,1.787C459.298,230.693,459.933,232.253,459.933,233.93z"/>
	</g>
	<g>
		<g>
			<g>
				<g>
					<g>
						<g>
							<g>
								<path fill="#004965" d="M236.111,226.955h-79.686h-27.099H97.706c-2.671,0-4.834,2.168-4.834,4.838v99.287
									c0,2.66,2.163,4.829,4.834,4.829h31.621h24.389h82.396c2.671,0,4.83-2.169,4.83-4.829v-99.287
									C240.941,229.123,238.782,226.955,236.111,226.955z"/>
							</g>
						</g>
					</g>
					<g>
						<g>
							<g>
								<path fill="#004965" d="M208.554,349.147c0,1.686-1.362,3.051-3.058,3.051h-77.171c-1.695,0-3.062-1.365-3.062-3.051v-2.294
									c0-1.688,1.366-3.059,3.062-3.059h77.171c1.695,0,3.058,1.371,3.058,3.059V349.147z"/>
							</g>
						</g>
					</g>
					<g>
						<g>
							<g>
								<rect x="150.396" y="331.965" fill="#004965" width="33.023" height="14.297"/>
							</g>
						</g>
					</g>
				</g>
				<g>
					<g>
						<g>
							<rect x="102.541" y="235.306" fill="#FFFFFF" width="128.736" height="90.905"/>
						</g>
					</g>
				</g>
			</g>
			<g>
				<g>
					<g>
						<path fill="#00B6DC" d="M143.108,279.137l-6.214-15.797l-4.223,5.914l-2.833-4.142l-5.615,9.771l-8.019-22.447l-8.283,12.914
							l-2.281-1.469l11.264-17.547l7.896,22.109l4.839-8.424l3.081,4.502l4.868-6.822l4.696,11.948l3.525-17.175l3.926,8.104
							l2.819-8.448l2.492,8.481l9.495-19.888l8.127,25.32l3.918-5.986l1.751,5.937l3.895-6.706l1.049,2.543
							c0.011,0.021,0.952,2.317,1.681,3.952c0.725-0.745,1.702-1.929,2.313-2.669c1.907-2.302,2.481-3.002,3.575-2.609l0.897,0.327
							l0.047,1.056c0.074,0.686,1.451,4.323,2.578,7.044c0.607-2.368,1.402-5.761,2.091-8.71
							c3.621-15.466,3.986-16.085,5.128-16.459l0.724-0.234l0.656,0.502c0.457,0.388,1.379,1.164,3.845,21.84l5.363-7.836l0.9,2.479
							c0,0,0.943,2.594,1.635,4.46c0.998-1.23,2.478-3.323,3.687-5.189l1.172-1.813l1.123,1.847
							c0.504,0.837,1.657,2.736,2.615,4.339c0.66-2.237,1.586-5.609,2.421-8.752l2.616,0.693
							c-3.296,12.477-3.417,12.49-4.564,12.605l-1.37-0.758c-0.149-0.287-1.601-2.699-2.93-4.888
							c-3.835,5.678-4.721,5.597-5.396,5.52l-0.823-0.075l-0.445-0.882c-0.236-0.599-0.846-2.257-1.382-3.706l-6.472,9.467
							l-0.418-3.607c-0.858-7.468-1.929-15.504-2.718-20.138c-0.849,3.179-1.914,7.749-2.722,11.203
							c-3.023,12.904-3.092,12.913-4.321,13.106l-0.898,0.141l-0.522-0.817c-0.393-0.656-2.538-5.642-3.635-8.874
							c-0.125,0.155-0.25,0.303-0.368,0.447c-2.628,3.184-3.722,4.391-5.013,4.225l-0.729-0.08l-0.535-0.811
							c-0.317-0.627-0.809-1.749-1.252-2.797l-4.309,7.411l-1.875-6.348l-3.824,5.841l-7.779-24.233l-9.604,20.119l-2.052-6.98
							l-2.188,6.556l-3.346-6.9L143.108,279.137z"/>
					</g>
				</g>
			</g>
			<g>
				<g>
					<g>
						<path fill="#00B6DC" d="M196.128,318.376l-3.748-18.284l-3.35,6.897l-2.185-6.561l-2.053,6.979l-9.604-20.118l-7.786,24.238
							l-3.817-5.841l-1.878,6.346l-4.302-7.414c-0.452,1.051-0.942,2.174-1.258,2.802l-0.328,0.658l-0.937,0.235
							c-1.287,0.147-2.382-1.049-5.012-4.236c-0.116-0.135-0.242-0.283-0.37-0.438c-1.094,3.229-3.236,8.214-3.637,8.876
							l-0.467,0.78l-0.954-0.11c-1.223-0.191-1.295-0.199-4.312-13.107c-0.813-3.453-1.88-8.019-2.721-11.202
							c-0.793,4.638-1.865,12.675-2.721,20.142l-0.419,3.604l-6.472-9.459c-0.534,1.447-1.146,3.104-1.389,3.706l-0.308,0.757
							l-0.953,0.197c-0.666,0.071-1.571,0.156-5.402-5.52c-1.324,2.188-2.776,4.601-2.932,4.898l-0.427,0.814l-0.938-0.067
							c-1.145-0.114-1.266-0.126-4.564-12.607l2.62-0.692c0.83,3.143,1.757,6.516,2.416,8.753c0.962-1.604,2.11-3.503,2.619-4.335
							l1.125-1.852l1.17,1.817c1.205,1.862,2.684,3.957,3.686,5.19c0.69-1.87,1.632-4.463,1.635-4.463l0.903-2.479l5.356,7.829
							c2.467-20.666,3.394-21.446,3.849-21.833l0.579-0.492l0.797,0.224c1.141,0.374,1.511,0.993,5.126,16.451
							c0.693,2.953,1.484,6.349,2.094,8.716c1.121-2.723,2.506-6.379,2.586-7.096v-0.953l0.938-0.371
							c1.102-0.402,1.675,0.303,3.577,2.601c0.612,0.741,1.587,1.923,2.312,2.673c0.725-1.639,1.67-3.932,1.683-3.96l1.047-2.536
							l3.893,6.704l1.754-5.933l3.911,5.981l8.133-25.324l9.497,19.896l2.492-8.482l2.812,8.445l3.936-8.105l3.521,17.18
							l4.694-11.944l4.872,6.819l3.077-4.502l4.843,8.418l8.766-24.537l3.869,24.912l-2.674,0.417l-2.234-14.37l-7.147,20.022
							l-5.619-9.769l-2.835,4.135l-4.222-5.908L196.128,318.376z"/>
					</g>
				</g>
			</g>
		</g>
		<g>
			<g>
				<g>
					<g>
						<path fill="#004965" d="M100.659,262.395c0,1.552-1.266,2.82-2.818,2.82c-1.558,0-2.82-1.269-2.82-2.82
							c0-1.558,1.263-2.821,2.82-2.821C99.394,259.573,100.659,260.837,100.659,262.395z"/>
					</g>
				</g>
			</g>
		</g>
	</g>
	<g>
		<path fill="#FFFFFF" d="M52.979,120.513c0,0,0.003,0.003,0.003,0.004c0.512,0.615,0.419,1.531-0.195,2.042l-6.729,5.521
			c-0.614,0.511-1.527,0.427-2.038-0.188l0,0c-0.512-0.621-0.434-1.534,0.188-2.044l6.73-5.525
			C51.556,119.809,52.469,119.898,52.979,120.513z M39.612,131.682c0.497,0.602,0.435,1.496-0.156,2.014
			c-2.347,2.068-4.418,3.989-6.331,5.867c-0.568,0.561-1.492,0.555-2.05-0.016c-0.553-0.586-0.55-1.497,0.019-2.054
			c1.95-1.915,4.061-3.868,6.445-5.974c0.598-0.527,1.517-0.475,2.043,0.129C39.596,131.661,39.604,131.672,39.612,131.682z
			 M27.245,143.928c0.443,0.537,0.447,1.336-0.024,1.877c-1.971,2.271-3.738,4.535-5.256,6.731
			c-0.455,0.663-1.358,0.827-2.019,0.373c-0.653-0.458-0.821-1.359-0.371-2.016c1.581-2.291,3.414-4.64,5.454-6.993
			c0.527-0.602,1.444-0.67,2.047-0.142C27.135,143.81,27.191,143.866,27.245,143.928z M17.491,158.295
			c0.351,0.424,0.444,1.027,0.197,1.556c-1.265,2.634-2.219,5.288-2.839,7.882c-0.187,0.779-0.972,1.264-1.748,1.075
			c-0.78-0.186-1.262-0.972-1.074-1.75c0.668-2.792,1.691-5.642,3.041-8.461c0.35-0.722,1.22-1.027,1.936-0.68
			C17.199,158.008,17.364,158.141,17.491,158.295z M88.283,248.395c0.234,0.283,0.367,0.648,0.33,1.043
			c-0.062,0.801-0.765,1.395-1.564,1.326c-2.905-0.242-5.856-0.676-8.784-1.277c-0.789-0.159-1.285-0.934-1.126-1.721
			c0.167-0.783,0.935-1.286,1.718-1.122c2.807,0.582,5.644,0.996,8.433,1.231C87.698,247.901,88.045,248.104,88.283,248.395z
			 M13.604,175.091c0.201,0.243,0.328,0.554,0.335,0.892c0.019,1.07,0.096,2.148,0.229,3.23c0.209,1.692,0.495,3.42,0.845,5.134
			c0.16,0.784-0.348,1.552-1.132,1.712c-0.78,0.162-1.557-0.341-1.714-1.131c-0.362-1.79-0.657-3.592-0.877-5.357
			c-0.146-1.188-0.226-2.361-0.255-3.52c-0.018-0.805,0.618-1.467,1.423-1.483C12.918,174.559,13.332,174.763,13.604,175.091z
			 M71.271,244.889c0.309,0.372,0.424,0.887,0.261,1.383c-0.249,0.758-1.067,1.174-1.827,0.92c-2.768-0.907-5.548-1.988-8.255-3.209
			c-0.73-0.325-1.056-1.188-0.726-1.918c0.33-0.731,1.186-1.057,1.918-0.729c2.616,1.183,5.299,2.224,7.966,3.1
			C70.881,244.522,71.104,244.688,71.271,244.889z M55.421,237.76c0.377,0.451,0.456,1.109,0.141,1.654
			c-0.405,0.689-1.29,0.926-1.982,0.525c-2.544-1.475-5.039-3.086-7.429-4.799c-0.659-0.454-0.804-1.37-0.337-2.025
			c0.467-0.651,1.374-0.801,2.025-0.332c2.314,1.656,4.735,3.223,7.192,4.646C55.184,237.518,55.314,237.629,55.421,237.76z
			 M16.989,192.107c0.108,0.132,0.196,0.289,0.254,0.459c0.899,2.655,1.981,5.31,3.216,7.903c0.341,0.728,0.037,1.593-0.693,1.936
			c-0.726,0.343-1.589,0.046-1.929-0.688c-1.281-2.696-2.404-5.464-3.34-8.218c-0.259-0.759,0.148-1.58,0.906-1.837
			C15.992,191.459,16.615,191.658,16.989,192.107z M41.291,227.629c0.448,0.537,0.454,1.338-0.022,1.881
			c-0.529,0.604-1.445,0.664-2.049,0.141c-2.224-1.945-4.361-4.014-6.372-6.135c-0.575-0.539-0.524-1.502,0.062-2.056
			c0.58-0.546,1.497-0.52,2.05,0.062c1.94,2.064,4.017,4.061,6.169,5.943C41.188,227.516,41.245,227.57,41.291,227.629z
			 M24.424,207.809c0.041,0.048,0.086,0.109,0.125,0.166c1.478,2.395,3.112,4.77,4.86,7.033c0.486,0.639,0.371,1.549-0.269,2.037
			c-0.633,0.492-1.532,0.333-2.034-0.26c-1.806-2.35-3.5-4.803-5.033-7.285c-0.42-0.684-0.209-1.576,0.473-1.998
			C23.168,207.119,23.971,207.262,24.424,207.809z"/>
	</g>
	<g>
		<path fill="#FFFFFF" d="M523.874,226.087c0,0-0.003-0.003-0.005-0.004c-0.375-0.706-0.1-1.584,0.604-1.96l7.704-4.051
			c0.705-0.377,1.582-0.109,1.957,0.596l0,0c0.377,0.712,0.117,1.59-0.596,1.964l-7.706,4.054
			C525.127,227.064,524.25,226.792,523.874,226.087z M539.217,217.844c-0.365-0.689-0.122-1.553,0.561-1.941
			c2.716-1.552,5.132-3.016,7.384-4.469c0.67-0.435,1.572-0.242,2.004,0.429c0.423,0.685,0.237,1.576-0.432,2.007
			c-2.296,1.483-4.756,2.971-7.518,4.551c-0.691,0.396-1.581,0.159-1.976-0.539C539.229,217.867,539.225,217.855,539.217,217.844z
			 M553.8,208.344c-0.324-0.615-0.168-1.398,0.403-1.834c2.389-1.826,4.576-3.688,6.505-5.533c0.58-0.558,1.498-0.536,2.053,0.041
			c0.548,0.582,0.53,1.498-0.044,2.051c-2.01,1.924-4.279,3.855-6.752,5.748c-0.638,0.482-1.55,0.365-2.032-0.273
			C553.885,208.481,553.84,208.415,553.8,208.344z M566.252,196.238c-0.258-0.486-0.229-1.096,0.12-1.563
			c1.771-2.325,3.239-4.731,4.37-7.146c0.34-0.727,1.207-1.042,1.93-0.702c0.727,0.34,1.039,1.207,0.697,1.932
			c-1.217,2.6-2.794,5.185-4.686,7.674c-0.486,0.635-1.398,0.76-2.031,0.275C566.479,196.578,566.345,196.416,566.252,196.238z
			 M515.084,93.713c-0.173-0.324-0.228-0.709-0.112-1.089c0.224-0.771,1.03-1.21,1.799-0.982c2.798,0.823,5.602,1.844,8.345,3.023
			c0.743,0.314,1.072,1.174,0.758,1.911c-0.321,0.734-1.174,1.072-1.908,0.754c-2.632-1.137-5.327-2.114-8.011-2.907
			C515.558,94.314,515.26,94.046,515.084,93.713z M573.446,180.572c-0.149-0.279-0.21-0.609-0.147-0.942
			c0.196-1.051,0.336-2.122,0.426-3.21c0.138-1.699,0.204-3.449,0.208-5.197c0.001-0.801,0.653-1.451,1.452-1.45
			c0.8,0,1.459,0.649,1.453,1.454c-0.006,1.827-0.081,3.651-0.223,5.425c-0.095,1.192-0.254,2.358-0.459,3.497
			c-0.145,0.793-0.902,1.314-1.692,1.167C574.011,181.231,573.647,180.947,573.446,180.572z M531.043,100.578
			c-0.229-0.427-0.238-0.953,0.021-1.408c0.398-0.691,1.282-0.934,1.975-0.531c2.527,1.446,5.033,3.066,7.438,4.809
			c0.65,0.465,0.795,1.376,0.323,2.023c-0.47,0.65-1.373,0.797-2.023,0.326c-2.326-1.686-4.742-3.245-7.178-4.642
			C531.348,101.015,531.164,100.809,531.043,100.578z M545.128,110.758c-0.278-0.52-0.222-1.179,0.195-1.649
			c0.536-0.594,1.449-0.646,2.048-0.115c2.193,1.958,4.314,4.039,6.307,6.198c0.555,0.578,0.512,1.505-0.077,2.052
			c-0.588,0.544-1.507,0.507-2.052-0.083c-1.932-2.088-3.987-4.111-6.106-6.002C545.311,111.043,545.205,110.906,545.128,110.758z
			 M573.562,163.223c-0.081-0.152-0.134-0.323-0.156-0.502c-0.346-2.781-0.871-5.6-1.557-8.389
			c-0.186-0.782,0.285-1.568,1.068-1.756c0.781-0.189,1.567,0.275,1.753,1.062c0.71,2.9,1.253,5.837,1.612,8.724
			c0.102,0.795-0.463,1.518-1.257,1.615C574.408,164.059,573.839,163.737,573.562,163.223z M556.924,123.529
			c-0.331-0.615-0.175-1.4,0.4-1.838c0.641-0.484,1.551-0.359,2.036,0.275c1.785,2.354,3.461,4.812,5.004,7.294
			c0.454,0.644,0.21,1.577-0.477,2.001c-0.678,0.418-1.57,0.207-1.993-0.475c-1.485-2.412-3.116-4.787-4.846-7.064
			C557.002,123.661,556.956,123.597,556.924,123.529z M569.447,146.344c-0.031-0.055-0.062-0.124-0.089-0.188
			c-0.965-2.644-2.087-5.3-3.343-7.869c-0.346-0.723-0.051-1.592,0.674-1.939c0.721-0.357,1.569-0.019,1.94,0.663
			c1.293,2.666,2.46,5.41,3.46,8.151c0.274,0.754-0.112,1.586-0.865,1.861C570.538,147.272,569.78,146.971,569.447,146.344z"/>
	</g>
</g>
<g id="txt">
</g>
</svg>
