<?xml version="1.0" encoding="utf-8"?>
<!-- Generator: Adobe Illustrator 16.0.0, SVG Export Plug-In . SVG Version: 6.00 Build 0)  -->
<!DOCTYPE svg PUBLIC "-//W3C//DTD SVG 1.1//EN" "http://www.w3.org/Graphics/SVG/1.1/DTD/svg11.dtd">
<svg version="1.1" id="Layer_1" xmlns="http://www.w3.org/2000/svg" xmlns:xlink="http://www.w3.org/1999/xlink" x="0px" y="0px"
	 width="846.25px" height="338.5px" viewBox="-141.25 0 846.25 338.5" enable-background="new -141.25 0 846.25 338.5"
	 xml:space="preserve">
<g id="bg">
</g>
<g>
	<g>
		<path fill="#80A6BF" d="M284.625,143.302c0,0,6.859-0.151,13.266,26.817c0,0,3.337,15.53,0.052,21.944l-8.094,1.072
			L284.625,143.302z"/>
		<path fill="#676F77" d="M278.927,156.444c0.019-3.35,0.792-11.573,3.548-12.765c1.839-0.797,4.188-2.729,8.382,12.765
			c2.225,8.206,6.306,36.632,0,36.704C284.206,193.229,278.684,201.506,278.927,156.444z"/>
	</g>
	<ellipse opacity="0.43" fill="#CECECE" enable-background="new    " cx="453.158" cy="321.031" rx="225.402" ry="13.03"/>
	<ellipse opacity="0.43" fill="#CECECE" enable-background="new    " cx="503.837" cy="321.031" rx="170.035" ry="10.303"/>
	<path opacity="0.43" fill="#A0A0A0" enable-background="new    " d="M664.497,320.444c0,4.928-61.698,8.929-137.808,8.929
		c-76.106,0-137.807-4.001-137.807-8.929c0-4.932,61.7-8.929,137.807-8.929C602.799,311.516,664.497,315.513,664.497,320.444z"/>
	<path fill="#D8D8D8" d="M621.137,10.521c-0.934,0-1.861,0.047-2.787,0.119H461.124v311.369l159.995-0.263
		c41.627,0,75.391-69.558,75.391-155.539C696.51,80.223,662.764,10.521,621.137,10.521z"/>
	<path fill="#727272" d="M621.243,219.824c-26.081-2.206-47.604-58.999-73.02-56.945c0-0.263,0.037,1.813,0.037,3.148
		c0,85.981-47.397,155.981-87.138,155.981c-1.487,0,163.358-0.27,163.358-0.27c39.721,0,72.027-70.083,72.027-156.065
		c0-1.071,0.007-2.123,0-3.19C670.434,164.717,646.656,221.879,621.243,219.824z"/>
	<ellipse fill="#FFFFFF" cx="461.125" cy="166.263" rx="87.137" ry="155.684"/>
	<path fill="#7C8689" d="M498.185,69.981c-11.101-19.834-24.612-31.208-37.069-31.208c-12.458,0-25.97,11.375-37.069,31.208
		c-13.943,24.91-21.939,60.025-21.939,96.348c0,36.319,7.997,71.438,21.939,96.347c11.1,19.832,24.611,31.208,37.069,31.208
		c12.457,0,25.969-11.377,37.069-31.208c13.944-24.909,21.852-59.915,21.852-96.235C520.036,130.121,512.129,94.891,498.185,69.981z
		"/>
	<path fill="#79FFDB" d="M375.003,163.604c-3.904-0.034-7.965,0.166-11.843,0.589c-16.046,1.758-58.619,10.144-58.656,10.155
		c-2.725,0.741-5.113,1.649-5.109,3.439v11.908c-0.114,0.652,1.412,0.301,2.895,0.166h139.866l0.071-24.448L375.003,163.604z"/>
	<g>
		<path fill="#70D8EF" d="M447.671,67.874c-17.475,25.856-27.493,62.169-27.493,99.628h11.721c0-35.18,9.287-69.101,25.481-93.069
			c7.82-11.568,16.862-20.417,25.537-25.023c-3.438-3.196-6.67-5.757-10.052-7.472C464.183,47.708,455.103,56.875,447.671,67.874z"
			/>
		<path fill="#70D8EF" d="M480.488,67.874c-17.475,25.856-27.495,62.169-27.495,99.628h11.719c0-35.18,9.291-69.101,25.485-93.069
			c1.889-2.793,3.998-5.523,5.98-7.939c-2.257-3.638-4.527-7.056-6.923-9.998C486.301,59.868,483.215,63.834,480.488,67.874z"/>
		<path fill="#70D8EF" d="M485.808,167.502h11.723c0-24.582,4.472-48.5,12.729-68.889c-1.736-5.435-3.569-10.676-5.715-15.601
			C492.553,107.017,485.808,136.875,485.808,167.502z"/>
	</g>
	<path fill="#95FFE7" d="M386.481,163.767c-3.98-0.037-8.118,0.182-12.062,0.646c-16.347,1.921-59.712,9.769-59.75,9.777
		c-2.774,0.816-5.208,1.812-5.204,3.766v11.7c-0.111,0.72,1.442,0.331,2.95,0.183h142.462l0.075-28.09L386.481,163.767z"/>
	<path fill="#6ECEB0" d="M520.036,162.852l-1.324-0.824c-2.927-1.614-7.577-4.992-15.765-4.992l-47.927,4.647l-0.697,0.069
		l-3.182,0.112l1.66,27.976h2.832h56.958c2.302,0,4.222,0.327,6.438-0.247c0.483-5.851,1.104-12.494,1.104-18.531
		C520.135,168.266,520.081,166.441,520.036,162.852z"/>
	<g>
		<path fill="#A6CDED" d="M298.305,143.557c0,0,6.859-0.148,13.264,26.818c0,0,3.339,15.529,0.054,21.946l-8.091,1.069
			L298.305,143.557z"/>
		<path fill="#8C939B" d="M292.607,156.699c0.021-3.35,0.795-11.573,3.548-12.764c1.841-0.795,4.19-2.73,8.383,12.764
			c2.224,8.207,6.303,36.632,0,36.707C297.887,193.485,292.364,201.763,292.607,156.699z"/>
	</g>
	<path fill="#E5CCB7" d="M506.739,175.492c-2.375-1.202-12.114-1.331-15.885-0.158c-5.296,1.645-18.541,3.312-22.08,3.203
		c-0.012,0-0.024,0-0.037-0.002c-6.006-0.176-11.964,0.324-17.829,1.479l-15.376,3.024c-3.499-0.893-9.736-2.565-14.041-4.146
		c-2.062-0.759-7.049,2.935-7.257,4.785c-0.208,1.854-0.625,6.161-0.625,6.161s13.383,0.7,15.465,0.396
		c0.56-0.086,1.702-0.176,2.935-0.375c2.375-0.021,4.456,0.159,7.902,0.369c10.422,0.639,38.186-0.39,38.186-0.39
		s8.102,0.239,16.789-0.025l14.482,0.071C509.369,189.884,515.911,180.142,506.739,175.492z"/>
	<g>
		<path fill="#B9B9B9" d="M454.799,225.837h-161.33v23.043h167.755h43.635c2.786-6.968,5.907-14.504,7.676-22.646L454.799,225.837z"
			/>
		<path fill="#CECECE" d="M448.644,188.935h-0.464H282.79v37.301h171.125h58.619c2.046-5.759,5.609-24.316,6.577-37.5
			L448.644,188.935z"/>
		<path opacity="0.25" fill="#4C4C4C" enable-background="new    " d="M455.347,226.233H327.123v2.631h128.825h55.992
			c0.204-0.876,0.4-1.745,0.595-2.631H455.347z"/>
		<path fill="#FFFFFF" d="M340.845,206.896c0,8.979-4.039,16.42-9.315,17.746c-1.845,0.465-3.765,1.417-5.569,2.211l-17.497,7.432
			c-11.821,5.219-15.777,5.227-27.602,0.022l-17.63-7.758c-1.809-0.796-3.688-1.438-5.536-1.903
			c-5.281-1.322-9.324-8.768-9.324-17.75l0,0c0-9.92,4.927-17.962,11.008-17.962h70.461
			C335.918,188.935,340.845,196.975,340.845,206.896L340.845,206.896z"/>
		<path fill="#FFFFFF" d="M327.368,225.854c0,6.479-2.916,11.847-6.724,12.802c-1.33,0.337-2.706,0.812-4.007,1.387l-12.634,5.571
			c-8.255,4.477-9.038,4.477-17.528,0.018l-12.723-5.599c-1.303-0.575-2.658-1.037-3.995-1.372
			c-3.809-0.955-6.725-6.328-6.725-12.807l0,0c0-7.157,3.556-12.957,7.94-12.957h48.454
			C323.814,212.897,327.368,218.697,327.368,225.854L327.368,225.854z"/>
	</g>
	<g>
		<path fill="#70D8EF" d="M653.948,115.164c0,1.556-1.263,2.819-2.819,2.819h-59.222c-1.559,0-2.82-1.263-2.82-2.819l0,0
			c0-1.556,1.262-2.819,2.82-2.819h59.222C652.686,112.343,653.948,113.606,653.948,115.164L653.948,115.164z"/>
		<path fill="#70D8EF" d="M656.768,125.549c0,1.558-1.264,2.819-2.819,2.819h-59.222c-1.56,0-2.819-1.261-2.819-2.819l0,0
			c0-1.556,1.26-2.819,2.819-2.819h59.222C655.504,122.73,656.768,123.993,656.768,125.549L656.768,125.549z"/>
		<path fill="#70D8EF" d="M657.943,135.934c0,1.556-1.264,2.819-2.819,2.819h-59.223c-1.559,0-2.818-1.263-2.818-2.819l0,0
			c0-1.559,1.26-2.819,2.818-2.819h59.223C656.68,133.115,657.943,134.375,657.943,135.934L657.943,135.934z"/>
		<path fill="#70D8EF" d="M658.885,146.32c0,1.555-1.264,2.818-2.819,2.818h-59.223c-1.559,0-2.821-1.264-2.821-2.818l0,0
			c0-1.557,1.263-2.82,2.821-2.82h59.223C657.621,143.5,658.885,144.764,658.885,146.32L658.885,146.32z"/>
	</g>
</g>
<g>
	<g>
		<path fill="#636363" d="M-1.772,295.096c0,0-4.241,2.752-6.415,9.965c-0.894,2.975-0.863,3.793-0.863,3.793
			s5.963,4.969,9.511,5.537c0.456,0.073,1.629-1.906,1.984-1.561c4.172,3.996,4.917,4.763,5.537,5.108
			c3.193,1.79,3.834,1.845,5.819,1.845c2.526,0,3.34,0,3.34,0s6.459-4.801,3.759-6.104c-2.7-1.309-5.866-2.789-5.866-2.789
			s-5.943-5.575-8.025-7.747C4.93,300.965-1.772,295.096-1.772,295.096z"/>
	</g>
	<path fill="#9FB3B2" d="M5.342,212.437l18.536,24.888c0,0,8.515,6.927,4.115,19.3c-4.397,12.369-15.613,51.662-15.613,51.662
		s-5.534-0.565-9.792-2.127c-5.543-2.035-8.516-6.248-8.516-6.248l12.49-43.287c0,0,1.577-3.974-1.42-7.099
		c-5.752-5.995-22.812-20.153-22.812-20.153L5.342,212.437z"/>
	<path fill="#C3E5E4" d="M-23.383,207.746c0,0-2.311,14.884,3.934,20.834c4.124,3.932,14.052,3.735,14.052,3.735l15.96,0.333
		c0,0,25.615,12.226,29.357,14.606c3.022,1.923,3.415,2.474,1.277,5.532c-7.942,11.358-26.542,37.753-26.542,37.753
		s5.109,0.147,9.082,8.945c1.739,3.848,6.673,5.395,6.673,5.395s20.864-29.38,33.637-51.24c7.398-12.66-4.117-19.587-4.117-19.587
		l-38.369-25.465L-23.383,207.746z"/>
	<path fill="#898989" d="M64.583,189.098c0,0.926,0.752,1.679,1.683,1.679h39.661c0.926,0,1.678-0.753,1.678-1.679v-0.945
		c0-0.926-0.752-1.681-1.678-1.681H66.265c-0.93,0-1.683,0.755-1.683,1.681V189.098z"/>
	<path fill="#D3D3D3" d="M91.404,187.455h37.355l-0.558-1.814c-3.103-10.064-6.931-22.074-4.646-32.79l0.167-0.782h-27.28
		l0.241,1.019c2.486,10.478-1.327,22.475-4.584,32.278L91.404,187.455z"/>
	<path fill="#B2B2B2" d="M88.572,188.007c0,0.925,0.75,1.677,1.68,1.677h39.665c0.925,0,1.677-0.752,1.677-1.677v-0.945
		c0-0.927-0.752-1.679-1.677-1.679H90.252c-0.93,0-1.68,0.752-1.68,1.679V188.007z"/>
	<path fill="#D3D3D3" d="M63.104,163.399c0,3.244,2.635,5.878,5.878,5.878h84.783c3.248,0,5.877-2.634,5.877-5.878v-50.365
		c0-3.245-2.63-5.878-5.877-5.878H68.982c-3.243,0-5.878,2.633-5.878,5.878V163.399L63.104,163.399z"/>
	<path fill="#FFFFFF" d="M89.867,187.062h37.352l-0.558-1.808c-3.103-10.069-6.934-22.079-4.643-32.798l0.166-0.782H94.902
		l0.241,1.021c2.486,10.477-1.328,22.475-4.583,32.277L89.867,187.062z"/>
	<path opacity="0.87" fill="#C1C1C1" enable-background="new    " d="M94.116,173.122c0.742-2.989,1.328-6.04,1.62-9.073h25.833
		c0.312,3.033,0.898,6.08,1.618,9.073H94.116z"/>
	<path fill="#FFFFFF" d="M60.276,163.399c0,3.244,2.632,5.878,5.878,5.878h84.78c3.248,0,5.878-2.634,5.878-5.878v-50.365
		c0-3.245-2.63-5.878-5.878-5.878h-84.78c-3.246,0-5.878,2.633-5.878,5.878V163.399L60.276,163.399z"/>
	<rect x="65.973" y="112.659" fill="#0BB4E8" width="85.142" height="51.118"/>
	<path fill="#D3D3D3" d="M87.033,188.007c0,0.925,0.752,1.677,1.68,1.677h39.664c0.925,0,1.678-0.752,1.678-1.677v-0.945
		c0-0.927-0.752-1.679-1.678-1.679H88.713c-0.928,0-1.68,0.752-1.68,1.679V188.007z"/>
	<circle fill="#F5F5F5" cx="108.544" cy="166.636" r="1.54"/>
	<rect x="134.487" y="142.987" fill="#0A9ECC" width="8.738" height="1.393"/>
	<rect x="71.834" y="135.439" fill="#0A9ECC" width="8.734" height="1.394"/>
	<rect x="125.697" y="156.059" fill="#0A9ECC" width="8.737" height="1.394"/>
	<polygon fill="#0A9ECC" points="116.874,149.075 115.541,149.339 119.71,159.205 134.433,159.205 134.433,157.941 120.621,157.941 
			"/>
	<polygon fill="#0A9ECC" points="125.387,140.466 124.476,141.372 128.596,146.664 143.225,146.664 143.225,145.321 
		129.232,145.376 	"/>
	<rect x="123.542" y="129.343" fill="#0A9ECC" width="21.923" height="1.28"/>
	<rect x="71.834" y="138.083" fill="#0A9ECC" width="21.924" height="1.28"/>
	<polygon fill="#0A9ECC" points="91.16,156.525 77.348,156.525 77.348,157.786 92.071,157.786 96.242,147.923 94.909,147.656 	"/>
	<polygon fill="#0A9ECC" points="92.646,121.271 78.833,121.271 78.833,120.01 93.557,120.01 97.726,129.872 96.392,130.139 	"/>
	<rect x="77.348" y="154.667" fill="#0A9ECC" width="8.737" height="1.392"/>
	<rect x="135.048" y="127.273" fill="#0A9ECC" width="10.416" height="1.393"/>
	<rect x="135.048" y="125.073" fill="#0A9ECC" width="10.416" height="1.393"/>
	<path fill="#636363" d="M30.479,300.8c0,0-0.189,4.477,1.187,9.028c1.25,4.146,3.695,5.17,3.695,5.17
		c5.177,1.202,5.847,3.062,6.062,5.27c0,0,0.04,0.975-0.383,1.282c-1.459,1.068-3.67,0.755-6.243,0.732
		c0,0-9.509-1.302-15.162-5.596c-5.566-4.224-5.923-16.405-7.523-15.988l-1.625-0.801c-1.784-3.807-0.596-5.321-0.586-5.479
		c0,0,4.342-5.373,7.476-4.867c2.77,0.438,7.966,8.015,10.816,10.305C28.999,300.508,30.479,300.8,30.479,300.8z"/>
	<path fill="#767774" d="M18.169,297.117c1.116,2.562,2.303,7.548,2.303,7.548l1.703-0.284c0,0,2.525,6.147,3.417,8.631
		c1.672,4.632,5.457,8.7,9.227,9.252c0.05,0.007-2.914-0.278-4.494-0.666c-3.348-0.813-7.174-1.601-11.343-5.292
		c-3.825-3.382-6.265-14.141-6.385-14.113l-1.987-0.72c-0.923-2.274-1.842-6.843,0.132-7.903c0,0,0.707-0.494,1.84-0.405
		C14.268,293.299,16.958,294.331,18.169,297.117z"/>
	<polygon fill="#FFD1B0" points="-10.736,127.812 -4.088,103.427 10.801,107.859 7.315,128.129 	"/>
	<path fill="#FFD1B0" d="M15.159,81.13l11.214,1.372l-4.69,28.83c-1.185,8.288-4.796,9.259-7.32,9.078
		c-5.244-0.388-10.821-3.812-13.604-5.79c-5.395-3.822-4.478-13.548-4.464-14.34l-0.229-19.537L15.159,81.13z"/>
	<path fill="#666055" d="M24.377,77.175c5.816,6.095,1.938,9.028,1.603,9.256c-2.926,1.984-4.396,5.98-5.023,9.193l-0.692,3.405
		c-0.751,3.115-2.677,2.635-2.715,2.559c-0.173-0.364,0.298-1.042-0.442-2.032c-0.75-1.008-3.022-1.514-5.665,4.532l-2.303,4.756
		c-2.08,4.281-8.591,6.093-12.375,5.213c0,0-2.152,0.308-3.229-2.154c-0.446-1.022-3.396-10.622-4.26-13.42
		c-2.928-9.472-0.979-17.592,4.565-22.694c2.718-2.502,6.994-3.308,8.246-3.432c5.447-0.537,7.147-0.662,8.124-0.094
		c3.264,1.894,2.735-1.384,4.532-0.66c1.064,0.426,1.637,2.851,2.992,3.053c1.405,0.211,1.802-1.241,1.923-1.176
		C20.976,74.236,24.377,77.175,24.377,77.175z"/>
	<g>
		<path fill="#E2B7A1" d="M17,99.187c0,0-2.379,0.283-3.268,2.982c-0.627,1.908-0.01,3.541,0.348,4.022
			c0.953,1.303,1.993,1.611,1.993,1.611s0.132-4.621,0.208-5.474C16.361,101.483,17,99.187,17,99.187z"/>
		<path fill="#FFE8D9" d="M18.159,98.223c0,0,1.403,0.343,0.427,1.902c-1.152,1.83-1.4,3.043-1.479,4.137
			c-0.067,0.995,0.215,3.891,0.215,3.891s-0.941,1.7-1.802-0.542c-0.345-0.891-0.554-2.549-0.436-4.673
			C15.139,102.074,16.707,97.734,18.159,98.223z"/>
	</g>
	<path fill="#EACAB5" d="M77.634,178.777l15.582-6.774c0,0,5.035-2.909,7.022,1.561c2.526,5.684,4.352,9.497,4.402,11.711
		c0.071,3.265-3.37,3.124-3.37,3.124l-23.089,0.271L77.634,178.777z"/>
	<path fill="#FFFFFF" d="M-40.191,188.627h-46.793c-19.138,0-34.705,14.837-34.705,33.069v98.792h12.268h41.355
		c-0.151,0,0-57.5,0-89.007c0-15.554,1.391-31.386,18.609-31.386l9.744-0.254L-40.191,188.627z"/>
	<path fill="#FFFFFF" d="M136.023,188.627h57.718c19.134,0,34.704,14.837,34.704,33.069v98.792h-34.114h-30.309
		c0-13.062,3.667-119.442-10.035-119.442l-17.964-0.724V188.627L136.023,188.627z"/>
	<g>
		<g>
			<path fill="#9E9E9E" d="M-132.498,320.485h12.268v-96.482c0-13.058,11.147-23.681,24.853-23.681h231.036
				c13.708,0,24.853,10.619,24.853,23.681v96.485h12.268v-98.792c0-18.232-15.567-33.069-34.702-33.069H-97.797
				c-19.134,0-34.701,14.837-34.701,33.069V320.485z"/>
		</g>
	</g>
	<path fill="#E6FFFF" d="M40.626,140.803c-1.134-2.895-2.697-9.227-7.805-10.503c0,0-13.342-4.112-26.684-5.677
		c-4.482-0.523-16.462-1.519-16.462-1.519l-15.757,0.241c-7.382,0.712-7.382,3.549-8.941,6.67c0,0-10.735,30.364-12.946,38.226
		c-1.702,6.058,2.188,7.535,4.541,7.917c5.175,0.845,13.865-2.033,13.865-1.659c0,2.963,4.395,45.084,4.395,45.084
		s1.903,8.195,21.167,8.242c28.701,0.075,38.138-11.301,38.138-11.301c0.055,0.053-10.125-13.025-10.4-18.521
		c-0.737-14.8,3.661-34.063,3.661-34.063c0.112-0.639,0.639-1.137,1.115-0.093l7.291,18.683c0,0,2.077,5.993,12.139,6.213
		c5.269,0.118,22.843,0.389,33.106-0.136c0,0-0.7-6.764-1.107-9.486c-0.538-3.655-1.617-5.011-3.12-5.189
		c-6.286-0.75-25.832-1.412-25.832-1.412c-2.125-0.213-1.415-0.789-2.271-4.037L40.626,140.803z"/>
	<path fill="#ABD8D7" d="M-36.692,175.896l3.941-15.507c3.122-14.191,7.441-25.974,7.067-23.972
		c-3.803,20.495-4.044,33.044-3.926,38.059C-29.98,174.396-33.144,175.323-36.692,175.896z"/>
	<path fill="#325F86" d="M-38.925,176.172c0-5.399,4.377-9.774,9.777-9.774h48.625c5.4,0,9.777,4.375,9.777,9.774v12.826
		c0,5.397-4.377,9.773-9.777,9.773h-48.625c-5.4,0-9.777-4.376-9.777-9.773V176.172z"/>
	<path fill="#407CAF" d="M-42.91,176.172c0-5.399,4.379-9.774,9.78-9.774h48.625c5.402,0,9.777,4.375,9.777,9.774v12.826
		c0,5.397-4.375,9.773-9.777,9.773H-33.13c-5.4,0-9.78-4.376-9.78-9.773V176.172z"/>
	<g>
		<path fill="#878787" d="M-11.067,231.861c0,1.504,1.218,2.725,2.724,2.725l0,0c1.507,0,2.725-1.221,2.725-2.725v-40.464
			c0-1.506-1.218-2.728-2.725-2.728l0,0c-1.506,0-2.724,1.222-2.724,2.728V231.861z"/>
		<path fill="#A8A8A8" d="M-12.019,231.861c0,1.504,1.221,2.725,2.727,2.725l0,0c1.504,0,2.727-1.221,2.727-2.725v-40.464
			c0-1.506-1.223-2.728-2.727-2.728l0,0c-1.506,0-2.727,1.222-2.727,2.728V231.861z"/>
	</g>
	<g>
		<path fill="#FFFFFF" d="M93.083,147.249c0.258,2.482,2.268,4.418,4.702,4.418h5.135c2.608,0,4.733-2.224,4.733-4.958v-21.146
			c0-2.734-2.125-4.96-4.733-4.96c-2.145,0-4.03,1.556-4.571,3.695c2.545,0.316,4.605,2.5,4.801,5.199
			c0.017,0.229-0.062,0.454-0.22,0.629c-0.166,0.177-0.397,0.279-0.641,0.279c-0.464,0-0.849-0.353-0.891-0.824
			c-0.168-1.987-1.789-3.541-3.69-3.541c-3.171,0-5.749,2.7-5.749,6.019c0,1.035,0.255,2.058,0.74,2.959l0.188,0.357l-0.322,0.246
			c-1.469,1.133-2.347,2.947-2.347,4.854c0,2.02,0.95,3.878,2.551,5.005c0.849-0.035,1.666-0.381,2.31-0.979l0.093-0.088
			c0.652-0.643,1.066-1.522,1.144-2.467c0.041-0.471,0.427-0.828,0.89-0.828c0.243,0,0.475,0.104,0.638,0.278
			c0.161,0.177,0.243,0.417,0.22,0.655c-0.028,0.372-0.089,0.735-0.187,1.088c0.132-0.016,0.266-0.022,0.395-0.025h0.003
			c1.286,0,2.419,0.484,3.263,1.364c0.854,0.892,1.315,2.089,1.298,3.372c-0.02,1.112-0.39,2.159-1.079,3.028
			c-0.31,0.392-0.936,0.418-1.28,0.064c-0.314-0.336-0.33-0.857-0.037-1.244c0.409-0.541,0.631-1.191,0.641-1.876
			c0.015-0.799-0.271-1.541-0.796-2.094c-0.512-0.532-1.202-0.828-1.943-0.828c-0.801,0.015-1.53,0.34-2.083,0.918
			C95.344,146.662,94.254,147.15,93.083,147.249z M104.015,139.639c-0.916,0-1.771-0.382-2.415-1.074
			c-0.63-0.68-0.977-1.578-0.977-2.534c0-0.492-0.176-0.955-0.497-1.301c-0.615-0.667-1.667-0.664-2.28-0.002
			c-0.25,0.27-0.414,0.61-0.476,0.983c-0.074,0.462-0.452,0.797-0.901,0.797c-0.243,0-0.479-0.104-0.641-0.289
			c-0.161-0.182-0.233-0.429-0.206-0.671c0.1-0.779,0.427-1.486,0.948-2.048c1.278-1.379,3.542-1.386,4.828,0
			c0.629,0.681,0.977,1.58,0.977,2.531c0,0.497,0.176,0.96,0.499,1.306c0.616,0.662,1.663,0.664,2.283,0
			c0.245-0.266,0.409-0.605,0.47-0.983c0.072-0.462,0.45-0.8,0.901-0.8c0.241,0,0.474,0.104,0.633,0.286
			c0.164,0.185,0.242,0.43,0.211,0.675c-0.097,0.781-0.424,1.488-0.946,2.05C105.787,139.255,104.93,139.639,104.015,139.639z"/>
	</g>
	<path fill="#FFFFFF" d="M125.082,135.726c-1.829,0.084-3.36,1.606-3.526,3.534c-0.042,0.471-0.426,0.828-0.894,0.828
		c-0.236,0-0.466-0.102-0.629-0.272c-0.164-0.173-0.243-0.4-0.231-0.633c0.218-2.945,2.608-5.246,5.442-5.246h0.03
		c0.194-0.61,0.292-1.239,0.292-1.876c0-3.256-2.484-5.92-5.577-6.015c-1.857,1.555-4.668,1.64-6.611,0.182
		c-0.18-0.139-0.292-0.337-0.322-0.565c-0.025-0.242,0.042-0.487,0.193-0.677c0.293-0.362,0.837-0.437,1.208-0.171
		c1.434,1.05,3.517,0.842,4.74-0.446c-0.518-2.194-2.415-3.765-4.593-3.765c-2.611,0-4.738,2.226-4.738,4.96l0.002,21.146
		c0,2.734,2.125,4.958,4.735,4.958h5.132c2.61,0,4.734-2.224,4.734-4.958c0-0.231-0.022-0.458-0.052-0.683l-0.005-0.037
		c-0.153-0.385-0.428-0.691-0.778-0.869c-0.385-0.198-0.824-0.217-1.236-0.059c-0.429,0.163-0.774,0.493-0.978,0.934
		c-0.543,1.166-1.476,2.048-2.62,2.486c-1.159,0.444-2.42,0.383-3.518-0.174c-1.097-0.553-1.913-1.528-2.296-2.748
		c-0.335-1.056-0.314-2.172,0.062-3.224c0.172-0.472,0.753-0.705,1.188-0.482c0.399,0.201,0.586,0.702,0.43,1.166
		c-0.213,0.653-0.221,1.343-0.015,1.992c0.239,0.759,0.737,1.359,1.405,1.697c0.66,0.333,1.419,0.367,2.126,0.1
		c0.722-0.277,1.306-0.837,1.648-1.575c0.404-0.866,1.095-1.521,1.949-1.845c0.866-0.33,1.809-0.283,2.63,0.128
		c0.514,0.26,0.951,0.651,1.273,1.133c1.034-1.119,1.615-2.608,1.615-4.174C127.303,138.626,126.475,136.864,125.082,135.726z
		 M118.474,134.811l-0.135-0.003c-0.925-0.032-1.806-0.423-2.481-1.099c-0.348-0.35-0.801-0.551-1.273-0.571h-0.005
		c-0.491,0-0.883,0.159-1.166,0.442c-0.303,0.305-0.458,0.722-0.442,1.171c0.015,0.367,0.137,0.725,0.36,1.032
		c0.277,0.376,0.246,0.883-0.072,1.202c-0.161,0.161-0.376,0.249-0.603,0.249c-0.265,0-0.513-0.121-0.677-0.328
		c-0.481-0.625-0.75-1.357-0.778-2.122c-0.037-0.94,0.298-1.816,0.948-2.466c0.613-0.613,1.442-0.948,2.332-0.948l0.138,0.002
		c0.919,0.033,1.801,0.426,2.479,1.1c0.347,0.348,0.797,0.554,1.27,0.568h0.007c0.491,0,0.881-0.156,1.166-0.439
		c0.303-0.305,0.459-0.72,0.442-1.174c-0.014-0.364-0.139-0.719-0.362-1.026c-0.275-0.38-0.244-0.884,0.069-1.202
		c0.362-0.357,0.98-0.307,1.283,0.08c0.482,0.625,0.752,1.355,0.778,2.117c0.036,0.943-0.303,1.821-0.947,2.467
		C120.193,134.475,119.365,134.811,118.474,134.811z"/>
	<path fill="#325F86" d="M13.39,321.58c0-3.419-2.772-6.193-6.189-6.193h-24.949c-3.419,0-6.192,2.774-6.192,6.193H13.39z"/>
	<g>
		<path fill="#325F86" d="M-9.909,317.852l-0.007-0.133v-79.963c0-1.205,2.079-2.183,4.643-2.183c2.563,0,4.64,0.978,4.64,2.183
			v79.903L-9.909,317.852z"/>
	</g>
	<path fill="#325F86" d="M-19.45,234.586c0,1.895,1.133,3.434,2.531,3.434H46.2c1.397,0,2.531-1.537,2.531-3.434l0,0
		c0-1.896-1.133-3.432-2.531-3.432h-63.119C-18.316,231.154-19.45,232.688-19.45,234.586L-19.45,234.586z"/>
	<path fill="#407CAF" d="M-42.91,234.586c0,1.895,1.136,3.434,2.536,3.434H22.74c1.399,0,2.533-1.537,2.533-3.434l0,0
		c0-1.896-1.133-3.432-2.533-3.432h-63.115C-41.774,231.154-42.91,232.688-42.91,234.586L-42.91,234.586z"/>
</g>
<g id="txt">
</g>
</svg>
