<?xml version="1.0" encoding="utf-8"?>
<!-- Generator: Adobe Illustrator 16.0.0, SVG Export Plug-In . SVG Version: 6.00 Build 0)  -->
<!DOCTYPE svg PUBLIC "-//W3C//DTD SVG 1.1//EN" "http://www.w3.org/Graphics/SVG/1.1/DTD/svg11.dtd">
<svg version="1.1" xmlns="http://www.w3.org/2000/svg" xmlns:xlink="http://www.w3.org/1999/xlink" x="0px" y="0px" width="827px"
	 height="363px" viewBox="0 0 827 363" enable-background="new 0 0 827 363" xml:space="preserve">
<g id="bg">
</g>
<g id="images">
	<g>
		<g>
			<polygon fill="#9E9E9E" points="771.355,97 550.547,97 414.385,19.867 278.746,97 60.355,97 9.355,187.887 823.355,183.943 			
				"/>
			<rect x="176" y="174" fill="#DC9B59" width="476" height="163"/>
			<rect x="9" y="210" fill="#DC9B59" width="167" height="112"/>
			<rect x="652" y="206" fill="#DC9B59" width="171" height="116"/>
			<rect x="652" y="184" fill="#FFFFFF" width="171" height="22"/>
			<rect x="9" y="188" fill="#FFFFFF" width="168" height="22"/>
			<rect x="347" y="228" fill="#FFFFFF" width="135" height="109"/>
			<rect x="340" y="228" fill="#FFFFFF" width="7" height="109"/>
			<rect x="483" y="228" fill="#FFFFFF" width="7" height="109"/>
			<rect x="340" y="223" fill="#FFFFFF" width="150" height="5"/>
			<path fill="#FFFFFF" d="M494.51,215l-58.922-28.281l1.684,7.456c0,0,7.215,4.791,3.607,10.665c0,0-4.57,5.161-12.266,0.161H421
				v-1.709l-4.73-5.458c0,0,2.266-0.712,2.266-7.356c0,0,0.502-6.408-3.77-6.408c-3.561,0-3.427,6.408-3.427,6.408
				c0,6.645,2.03,7.356,2.03,7.356L408,203.291V205h-6.322c-7.695,5-12.264-0.112-12.264-0.112
				c-3.609-5.874,3.607-10.544,3.607-10.544l1.682-7.588L335.783,215H334v3h1.783l5.09,4.957l73.916,1.674l75.273-1.615L494.51,218
				H496v-3H494.51z"/>
			<rect x="442" y="255" fill="#E6E6E6" width="9" height="29"/>
			<rect x="442" y="295" fill="#E6E6E6" width="9" height="23"/>
			<rect x="442" y="241" fill="#E6E6E6" width="9" height="7"/>
			<rect x="425" y="255" fill="#E6E6E6" width="8" height="29"/>
			<rect x="425" y="295" fill="#E6E6E6" width="8" height="23"/>
			<rect x="425" y="241" fill="#E6E6E6" width="8" height="7"/>
			<rect x="395" y="255" fill="#E6E6E6" width="10" height="29"/>
			<rect x="395" y="295" fill="#E6E6E6" width="10" height="23"/>
			<rect x="395" y="241" fill="#E6E6E6" width="10" height="7"/>
			<rect x="377" y="255" fill="#E6E6E6" width="10" height="29"/>
			<rect x="377" y="295" fill="#E6E6E6" width="10" height="23"/>
			<rect x="377" y="241" fill="#E6E6E6" width="10" height="7"/>
			<polygon fill="#CCCCCC" points="484,337 481,337 481,230 347,230 347,337 344,337 344,228 484,228 			"/>
			<polygon fill="#CCCCCC" points="417,338 414,338 414,230 370,230 370,338 368,338 368,228 417,228 			"/>
			<polygon fill="#CCCCCC" points="463,338 460,338 460,230 417,230 417,338 414,338 414,228 463,228 			"/>
			<rect x="467" y="237" fill="#999999" width="9" height="83"/>
			<rect x="354" y="237" fill="#999999" width="9" height="83"/>
			<polygon fill="#F2F2F2" points="483.328,337 344.408,337 322.355,359 505.381,359 			"/>
			<g>
				<rect x="708" y="226" fill="#DABF99" width="40" height="66"/>
				<path fill="#BD7844" d="M748,226v66h-40v-66H748 M755,218h-6.66h-39.869H700v7.717v66.212V300h8.471h39.869H755v-8.071v-66.212
					V218L755,218z"/>
			</g>
			<g>
				<rect x="82" y="230" fill="#DABF99" width="40" height="66"/>
				<path fill="#BD7844" d="M122,230v66H82v-66H122 M130,222h-7.771H82.359H75v7.717v66.212V304h7.359h39.869H130v-8.071v-66.212
					V222L130,222z"/>
			</g>
			<g>
				<path fill="#DABF99" d="M556,203.468c-11.01,0-20,8.926-20,19.936V290h40v-66.596C576,212.394,567.01,203.468,556,203.468z"/>
				<path fill="#BD7844" d="M556,203.468c11.01,0,20,8.926,20,19.936V290h-40v-66.596C536,212.394,544.99,203.468,556,203.468
					 M555.5,193.014c-16.758,0-30.5,13.632-30.5,30.39v66.389V301h11.178h39.869H586v-11.208v-66.389
					C586,206.646,572.256,193.014,555.5,193.014L555.5,193.014z"/>
			</g>
			<g>
				<path fill="#DABF99" d="M273,203.468c-11.01,0-20,8.926-20,19.936V290h40v-66.596C293,212.394,284.01,203.468,273,203.468z"/>
				<path fill="#BD7844" d="M273,203.468c11.01,0,20,8.926,20,19.936V290h-40v-66.596C253,212.394,261.99,203.468,273,203.468
					 M272.5,193.014c-16.756,0-30.5,13.632-30.5,30.39v66.389V301h10.82h39.869H303v-11.208v-66.389
					C303,206.646,289.256,193.014,272.5,193.014L272.5,193.014z"/>
			</g>
			<rect x="175" y="176" fill="#BD7844" width="3" height="161"/>
			<rect x="651" y="176" fill="#BD7844" width="3" height="161"/>
			<polygon fill="#DABF99" points="230.395,139 599.184,139 414.434,34.344 			"/>
			<g>
				<g>
					<polygon fill="#FFFFFF" points="734,87.243 691.867,63.376 652.646,86.159 617.904,116.789 625.454,120.348 625.525,120.438 
						659.701,95 669.178,95 690.699,81.866 716,94.363 716,104.803 734,94.363 					"/>
					<polygon fill="#DABF99" points="690.699,81.866 669.178,95 659.701,95 625.537,120.438 625.527,120.503 659.701,139 716,139 
						716,104.803 716,94.363 					"/>
				</g>
				<path fill="#FFFFFF" d="M708,130h-32V95h32V130z M679,126h25V99h-25V126z"/>
			</g>
			<g>
				<g>
					<polygon fill="#FFFFFF" points="211.832,117.115 176.895,86.322 137.1,63.458 94,87.243 94,94.363 112.717,104.864 
						113,104.851 113,94.363 138.77,81.866 160.758,95 170.234,95 204.408,120.772 204.381,121 204.383,121 					"/>
					<polygon fill="#DABF99" points="170.234,95 160.758,95 138.77,81.866 113,94.363 113,104.851 113,139 170.234,139 
						204.381,120.461 204.408,120.503 					"/>
				</g>
				<path fill="#FFFFFF" d="M153,130h-32V95h32V130z M125,126h24V99h-24V126z"/>
			</g>
			<rect x="309" y="100" fill="#65C0DE" width="207" height="31"/>
			<path fill="#FFFFFF" d="M413.721,96.026c-12.301,0-22.309-10.009-22.309-22.31c0-12.303,10.008-22.312,22.309-22.312
				c12.303,0,22.311,10.009,22.311,22.312C436.031,86.017,426.023,96.026,413.721,96.026z M413.721,56.157
				c-9.68,0-17.557,7.877-17.557,17.56c0,9.682,7.877,17.558,17.557,17.558c9.682,0,17.559-7.876,17.559-17.558
				C431.279,64.034,423.402,56.157,413.721,56.157z"/>
			<path fill="#FFFFFF" d="M664.16,150L413.705,8.781L163.867,150h-26.738l9.967,6.461l8.188,0.661L176.998,168H177v1.83V174h475v-6
				h0.582l22.781-13h8.188l5.34-5H664.16z M413.738,21.87L640.941,150H187.045L413.738,21.87z"/>
			<g>
				<path fill="#FFFFFF" d="M320.691,114.033c0,3.953,2.812,5.512,5.807,5.512c2.266,0,3.324-0.85,3.938-0.85
					c0.215,0,0.545-0.063,0.545-0.315c0-0.125-0.082-0.455-0.082-0.945c0-0.472,0.148-1.903,0.213-2.536
					c0.115-1.055,1.043-0.408,1.043-0.945c0-0.172-0.033-0.203-0.281-0.203c-0.545,0-0.941,0.062-1.322,0.062
					c-0.977,0-1.391-0.062-1.637-0.062c-0.283,0-0.498-0.017-0.498,0.252c0,0.598,1.422-0.488,1.422,1.322
					c0,1.135-0.082,2.395-0.809,3.072c-0.529,0.503-1.703,0.693-2.416,0.693c-2.877,0-4.648-2.584-4.648-5.229
					c0-2.175,0.91-5.277,4.715-5.277c1.191,0,2.299,0.425,3.225,1.118c1.439,1.07,1.01,2.109,1.557,2.109
					c0.115,0,0.164-0.142,0.164-0.203c0-0.269-0.148-0.836-0.148-2.441c0-0.111,0-0.253-0.133-0.253
					c-0.182,0-0.182,0.268-0.496,0.268c-0.596,0-1.654-1.04-4.201-1.04C325.158,108.14,320.691,109.103,320.691,114.033"/>
				<path fill="#FFFFFF" d="M337.811,112.489c-0.959,0-1.869,1.449-2.135,1.749c-0.098-1.197-0.676-1.749-1.123-1.749
					c-0.826,0-1.406,1.606-1.406,2.143c0,0.188,0.016,0.3,0.1,0.3c0.396,0,0.445-1.229,1.043-1.229c0.66,0,0.676,0.944,0.676,1.402
					c0,0.408-0.064,0.755-0.66,4.048c0,0.236,0.133,0.221,0.33,0.221h0.613c0.166,0,0.18-0.174,0.215-0.474l0.514-3.229
					c0.098-0.565,0.348-2.221,1.174-2.221c0.611,0,0.66,0.725,0.859,0.725c0.281,0,0.545-1.103,0.545-1.229
					C338.555,112.677,338.01,112.489,337.811,112.489"/>
				<path fill="#FFFFFF" d="M342.443,113.009c0.543,0,0.842,0.283,0.842,0.803c0,1.354-1.936,1.969-2.828,1.969
					c-0.264,0-0.379-0.047-0.379-0.127C340.078,115.104,341.037,113.009,342.443,113.009 M338.92,117.199
					c0,1.338,0.859,2.346,2.332,2.346c1.754,0,3.027-1.18,3.027-1.402c0-0.109-0.066-0.14-0.184-0.14
					c-0.363,0-0.693,0.709-2.018,0.709c-1.256,0-2.1-0.521-2.1-2.173c0-0.442,0.033-0.427,0.463-0.427
					c1.289,0,3.854-0.614,3.854-2.316c0-1.055-0.828-1.307-1.455-1.307C341.002,112.489,338.92,114.804,338.92,117.199"/>
				<path fill="#FFFFFF" d="M345.188,117.705c0,0.985,0.381,1.84,1.521,1.84c1.291,0,2.301-0.903,2.945-1.809l0.033,0.031
					c-0.051,0.646,0.23,1.653,0.992,1.653c0.877,0,1.67-1.589,1.67-1.763c0-0.189-0.113-0.156-0.23-0.156
					c-0.266,0-0.496,0.939-0.959,0.939c-0.115,0-0.412,0.02-0.412-0.721c0-1.775,0.826-5.311,0.826-5.421s-0.084-0.142-0.15-0.142
					c-0.199,0-0.479,0.662-0.729,0.662c-0.215,0-0.43-0.079-0.645-0.174c-0.215-0.078-0.43-0.157-0.645-0.157
					C347.189,112.489,345.188,115.851,345.188,117.705 M346.248,117.438c0-1.665,1.471-4.46,3.059-4.46
					c0.762,0,0.959,0.392,0.959,0.61c0,0.459-0.629,3.168-0.629,3.42c0,0.222-0.959,1.733-2.248,1.733
					C346.279,118.742,346.248,117.689,346.248,117.438"/>
				<path fill="#FFFFFF" d="M355.229,112.835l0.217-1.01c0.014-0.125,0.08-0.299,0.08-0.377c0-0.156-0.098-0.173-0.182-0.173
					c-0.332,0-0.611,0.961-1.572,1.433c-0.611,0.301-0.693,0.426-0.693,0.489c0,0.394,0.859-0.032,0.859,0.378
					c0,0.315-0.594,3.686-0.594,4.537c0,0.662,0.164,1.432,1.025,1.432c1.256,0,2.447-1.542,2.447-1.748
					c0-0.046,0-0.141-0.166-0.141c-0.297,0-0.66,0.896-1.588,0.896c-0.629,0-0.645-0.52-0.645-0.834
					c0-0.331,0.594-4.301,0.744-4.301h1.273c0.232,0,0.465,0.031,0.465-0.283c0-0.33-0.232-0.299-0.465-0.299H355.229z"/>
				<path fill="#FFFFFF" d="M362.473,117.973c-0.215,1.558-1.373,0.832-1.373,1.306c0,0.156,0.117,0.142,0.629,0.142
					c0.678,0,1.357-0.063,2.498-0.063c1.736,0,2.545,0.063,3.572,0.063c0.777,0,1.01-0.11,1.256-0.362
					c1.043-1.117,1.061-1.592,1.061-1.764c0-0.094-0.084-0.158-0.182-0.158c-0.564,0-0.051,1.686-5.178,1.686
					c-1.025,0-1.125-0.033-1.125-0.441c0-0.236,0.016-0.393,0.033-0.566l1.189-8.318c0.133-0.977,1.227-0.629,1.227-1.039
					c0-0.125-0.117-0.174-0.184-0.174c-0.447,0-0.91,0.062-1.357,0.062c-0.908,0-1.818-0.062-2.33-0.062
					c-0.084,0-0.184,0.049-0.184,0.174c0,0.568,1.539-0.096,1.539,1.241c0,0.079-0.033,0.474-0.1,0.929L362.473,117.973z"/>
				<path fill="#FFFFFF" d="M370.461,117.705c0,0.985,0.381,1.84,1.521,1.84c1.289,0,2.299-0.903,2.945-1.809l0.031,0.031
					c-0.047,0.646,0.234,1.653,0.994,1.653c0.877,0,1.67-1.589,1.67-1.763c0-0.189-0.115-0.156-0.23-0.156
					c-0.266,0-0.496,0.939-0.959,0.939c-0.117,0-0.416,0.02-0.416-0.721c0-1.775,0.828-5.311,0.828-5.421s-0.08-0.142-0.148-0.142
					c-0.199,0-0.479,0.662-0.729,0.662c-0.213,0-0.43-0.079-0.645-0.174c-0.215-0.078-0.43-0.157-0.645-0.157
					C372.463,112.489,370.461,115.851,370.461,117.705 M371.521,117.438c0-1.665,1.471-4.46,3.059-4.46
					c0.762,0,0.959,0.392,0.959,0.61c0,0.459-0.627,3.168-0.627,3.42c0,0.222-0.959,1.733-2.252,1.733
					C371.553,118.742,371.521,117.689,371.521,117.438"/>
				<path fill="#FFFFFF" d="M378.154,119.152c0,0.236,0.131,0.221,0.328,0.221h0.611c0.168,0,0.184-0.174,0.217-0.474
					c0.082-0.612,0.332-2.269,0.48-2.456c0.082-0.127,0.76-0.395,0.891-0.395c0.15,0,0.35,0.41,0.465,0.582
					c1.389,2.254,1.506,2.805,2.168,2.805c0.875,0,1.553-1.686,1.553-1.857c0-0.144-0.082-0.158-0.148-0.158
					c-0.248,0-0.578,0.913-1.092,0.913c-0.48,0-1.67-2.253-2.016-2.93c2.066-1.45,2.529-1.938,2.529-2.442
					c0-0.378-0.332-0.472-0.58-0.472c-0.264,0-0.562,0.174-0.744,0.804c-0.396,1.417-2.844,2.709-2.961,2.709
					c-0.082,0-0.049-0.204-0.049-0.299c0-0.205,0.744-4.916,1.043-7.436c0.031-0.189,0.066-0.41,0.066-0.488
					c0-0.079-0.084-0.143-0.201-0.143c-0.113,0-0.229,0.033-0.43,0.08c-1.156,0.268-1.785,0.109-1.785,0.441
					c0,0.33,1.174-0.064,1.174,0.425c0,0.173-0.066,0.503-0.115,0.913L378.154,119.152z"/>
				<path fill="#FFFFFF" d="M388.836,113.009c0.547,0,0.844,0.283,0.844,0.803c0,1.354-1.934,1.969-2.826,1.969
					c-0.266,0-0.381-0.047-0.381-0.127C386.473,115.104,387.432,113.009,388.836,113.009 M385.316,117.199
					c0,1.338,0.857,2.346,2.33,2.346c1.754,0,3.025-1.18,3.025-1.402c0-0.109-0.064-0.14-0.182-0.14
					c-0.363,0-0.695,0.709-2.018,0.709c-1.256,0-2.1-0.521-2.1-2.173c0-0.442,0.033-0.427,0.463-0.427
					c1.289,0,3.854-0.614,3.854-2.316c0-1.055-0.826-1.307-1.455-1.307C387.396,112.489,385.316,114.804,385.316,117.199"/>
				<path fill="#FFFFFF" d="M393.65,119.136c-1.109,0-0.744-1.087-1.555-1.087c-0.512,0-0.496,0.392-0.496,0.44
					c0,0.883,1.34,1.055,1.885,1.055c1.125,0,2.465-0.55,2.465-1.967c0-1.86-2.564-2.647-2.564-3.797
					c0-0.583,0.365-0.915,0.861-0.915c0.893,0,0.594,0.978,1.422,0.978c0.166,0,0.514-0.062,0.514-0.441
					c0-0.252-0.348-0.913-1.506-0.913c-0.828,0-2.184,0.268-2.184,1.812c0,1.576,2.516,2.205,2.516,3.749
					C395.008,118.679,394.445,119.136,393.65,119.136"/>
				<path fill="#FFFFFF" d="M412.473,117.718c0,1.575-1.289,1.118-1.289,1.48c0,0.174,0.148,0.236,0.33,0.236
					c0.297,0,0.693-0.062,1.57-0.062c0.861,0,1.49,0.062,1.654,0.062c0.363,0,0.447-0.078,0.447-0.252
					c0-0.519-1.488,0.348-1.488-1.276v-8.033c0-1.465,1.238-0.929,1.238-1.417c0-0.096-0.064-0.174-0.166-0.174
					c-0.229,0-0.494,0.062-0.727,0.062c-0.248,0-0.51-0.062-0.76-0.062c-0.182,0-0.215,0.047-1.094,1.858
					c-1.156,2.409-3.672,7.151-3.918,7.151c-0.184,0-2.398-4.771-3.439-7.151c-0.266-0.614-0.777-1.858-1.107-1.858
					c-0.217,0-0.449,0.062-0.83,0.062c-0.445,0-0.891-0.062-1.336-0.062c-0.1,0-0.119,0.078-0.119,0.158
					c0,0.74,1.969-0.428,1.969,2.582c0,0.395-0.082,1.214-0.297,2.27l-0.977,4.74c-0.264,1.293-1.057,0.82-1.057,1.246
					c0,0.094,0.049,0.156,0.246,0.156c0.148,0,0.645-0.062,1.273-0.062c0.811,0,1.406,0.062,1.621,0.062
					c0.133,0,0.199-0.078,0.199-0.204c0-0.331-1.537,0.015-1.537-0.96c0-0.49,0.031-0.789,0.131-1.309l0.875-4.805
					c0.068-0.378,0.102-0.551,0.201-0.551c0.049,0,0.113,0.031,0.197,0.219l3.143,6.602c0.182,0.395,0.414,1.023,0.578,1.023
					c0.182,0,0.182-0.473,1.043-2.078l2.73-5.041c0.215-0.378,0.461-0.788,0.561-0.788s0.133,0.095,0.133,0.282V117.718z"/>
				<path fill="#FFFFFF" d="M417.186,118.253c-0.133,1.008-1.141,0.615-1.141,0.978c0,0.189,0.066,0.204,0.264,0.204
					c0.365,0,0.697-0.062,1.309-0.062c0.941,0,1.836,0.062,2.1,0.062c0.299,0,0.381-0.031,0.381-0.189
					c0-0.44-1.621,0.127-1.621-1.291c0-0.299,0.016-0.439,0.082-0.896l0.299-2.207c0.064-0.441,0.1-0.945,0.346-0.945h1.393
					c0.246,0,0.344,0.41,0.479,0.772l1.338,3.48c0.562,1.466,1.557,1.276,1.936,1.276c0.332,0,1.125-0.031,1.125-0.252
					c0-0.488-1.076,0.268-1.77-1.307l-1.539-3.561c-0.148-0.33-0.215-0.535-0.215-0.566c0-0.191,2.764-0.615,2.764-3.073
					c0-2-1.854-2.394-3.572-2.394c-0.828,0-1.656,0.062-2.482,0.062c-0.465,0-0.908-0.062-1.357-0.062
					c-0.098,0-0.312-0.031-0.312,0.158c0,0.504,1.307,0,1.307,1.071c0,0.172-0.033,0.503-0.049,0.661L417.186,118.253z
					 M419.535,109.384c0.098-0.725,1.207-0.661,1.34-0.661c1.422,0,2.531,0.552,2.531,2.063c0,2.758-2.631,2.568-3.076,2.568
					c-0.846,0-1.258,0.047-1.258-0.425c0-0.362,0.082-0.757,0.131-1.118L419.535,109.384z"/>
				<path fill="#FFFFFF" d="M427.424,118.207c-0.131,1.024-1.223,0.692-1.223,1.057c0,0.125,0.066,0.172,0.23,0.172
					c0.232,0,0.498-0.062,1.506-0.062c0.877,0,1.373,0.062,1.771,0.062c0.18,0,0.279,0,0.279-0.142c0-0.536-1.289,0.017-1.289-0.976
					c0-0.269,0.082-0.836,0.115-1.023l0.975-7.672c0.168-1.291,1.109-0.663,1.109-1.214c0-0.157-0.082-0.126-0.35-0.126
					c-0.379,0-0.809,0.062-1.486,0.062c-1.027,0-1.355-0.062-1.572-0.062c-0.297,0-0.363,0.049-0.363,0.158
					c0,0.456,1.389,0.109,1.389,1.023c0,0.251-0.049,0.488-0.148,1.465L427.424,118.207z"/>
				<path fill="#FFFFFF" d="M436.959,116.931c0-1.496,0.506-4.082,2.453-4.082c1.279,0,1.549,0.994,1.549,2.113
					c0,1.527-0.506,4.221-2.531,4.221C437.182,119.183,436.959,117.908,436.959,116.931 M438.43,119.544
					c2.248,0,3.59-2.157,3.59-4.204c0-1.624-0.885-2.852-2.594-2.852c-2.199,0-3.527,2.347-3.527,4.3
					C435.898,118.365,436.785,119.544,438.43,119.544"/>
				<path fill="#FFFFFF" d="M443.254,112.835c-0.221,0-0.443-0.031-0.443,0.299c0,0.314,0.223,0.283,0.443,0.283h0.902
					c0.08,0,0.111,0.064,0.094,0.141l-0.836,7.327c-0.129,1.102-0.604,1.04-0.697,1.04c-0.365,0-0.238-0.805-0.537-0.805
					c-0.238,0-0.412,0.678-0.412,1.087c0,0.284,0.189,0.409,0.475,0.409c0.189,0,2.008-0.172,2.311-2.85l0.664-5.75
					c0.047-0.426-0.031-0.6,0.395-0.6h0.824c0.221,0,0.441,0.031,0.441-0.283c0-0.33-0.221-0.299-0.441-0.299h-0.998
					c-0.078,0-0.016-0.158-0.016-0.268c0-0.3,0.367-4.064,1.566-4.064c0.711,0,0.775,0.693,1.014,0.693
					c0.268,0,0.268-0.537,0.268-0.93c0-0.283-0.031-0.473-0.711-0.473c-0.998,0-2.072,1.009-2.609,2.551
					c-0.572,1.67-0.557,2.49-0.744,2.49H443.254z"/>
				<path fill="#FFFFFF" d="M461.811,117.718c0,1.575-1.234,1.118-1.234,1.48c0,0.174,0.145,0.236,0.318,0.236
					c0.283,0,0.662-0.062,1.502-0.062c0.822,0,1.424,0.062,1.582,0.062c0.35,0,0.428-0.078,0.428-0.252
					c0-0.519-1.424,0.348-1.424-1.276v-8.033c0-1.465,1.186-0.93,1.186-1.417c0-0.096-0.062-0.175-0.158-0.175
					c-0.221,0-0.475,0.063-0.697,0.063c-0.236,0-0.488-0.063-0.727-0.063c-0.174,0-0.205,0.048-1.043,1.859
					c-1.109,2.409-3.514,7.151-3.75,7.151c-0.174,0-2.295-4.771-3.291-7.151c-0.252-0.614-0.742-1.859-1.059-1.859
					c-0.207,0-0.428,0.063-0.793,0.063c-0.426,0-0.854-0.063-1.281-0.063c-0.094,0-0.109,0.079-0.109,0.159
					c0,0.74,1.883-0.428,1.883,2.582c0,0.395-0.08,1.214-0.285,2.27l-0.934,4.74c-0.252,1.293-1.012,0.82-1.012,1.246
					c0,0.094,0.047,0.156,0.236,0.156c0.143,0,0.617-0.062,1.219-0.062c0.775,0,1.344,0.062,1.549,0.062
					c0.127,0,0.191-0.078,0.191-0.204c0-0.331-1.471,0.015-1.471-0.96c0-0.49,0.031-0.789,0.125-1.309l0.84-4.805
					c0.062-0.378,0.096-0.551,0.189-0.551c0.047,0,0.111,0.031,0.189,0.219l3.006,6.602c0.176,0.395,0.395,1.023,0.553,1.023
					c0.176,0,0.176-0.473,0.996-2.078l2.611-5.041c0.207-0.378,0.443-0.788,0.537-0.788c0.096,0,0.127,0.095,0.127,0.282V117.718z"
					/>
				<path fill="#FFFFFF" d="M468.061,109.89c0-0.189-0.332-0.914-0.57-0.914s-0.648,0.582-0.648,0.819
					c0,0.188,0.332,0.912,0.568,0.912C467.648,110.708,468.061,110.125,468.061,109.89 M466.652,117.968
					c0-0.982,0.996-5.244,0.996-5.338c0-0.077,0-0.171-0.223-0.171c-0.125,0-0.299,0.108-0.553,0.156
					c-1.012,0.172-1.678,0.03-1.678,0.314c0,0.44,1.203-0.032,1.203,0.476c0,0.428-0.791,3.532-0.791,5.035
					c0,0.396,0.143,0.994,0.648,0.994c0.871,0,1.787-1.548,1.787-1.863c0-0.095-0.078-0.158-0.156-0.158
					c-0.223,0-0.602,0.966-0.982,0.966C466.715,118.379,466.652,118.287,466.652,117.968"/>
				<path fill="#FFFFFF" d="M469.848,116.49c0-1.213,0.553-3.434,2.135-3.434c1.281,0,1.141,1.086,1.693,1.086
					c0.316,0,0.586-0.141,0.586-0.598c0-0.646-1.014-1.056-1.695-1.056c-1.834,0-3.779,1.779-3.779,4.583
					c0,1.324,0.648,2.473,2.104,2.473c2.072,0,3.055-1.448,3.055-1.512c0-0.094-0.047-0.173-0.127-0.173
					c-0.332,0-0.729,0.866-2.186,0.866C470.289,118.726,469.848,117.687,469.848,116.49"/>
				<path fill="#FFFFFF" d="M475.779,114.404c-0.27,1.873-0.791,4.562-0.791,4.736c0,0.248,0.125,0.217,0.316,0.217h0.586
					c0.158,0,0.172-0.174,0.205-0.473c0.523-4.21,1.234-5.529,2.436-5.529c0.697,0,0.855,0.598,0.855,1.291
					c0,0.41-0.271,2.426-0.271,3.702c0,0.483,0.033,1.087,0.65,1.087c0.949,0,1.805-1.291,1.805-1.496
					c0-0.079-0.064-0.125-0.145-0.125c-0.252,0-0.57,0.691-0.963,0.691c-0.318,0-0.334-0.488-0.334-0.646
					c0-0.426,0.078-0.96,0.158-1.544c0.062-0.582,0.143-1.229,0.143-1.874c0-0.913-0.252-1.953-1.359-1.953
					c-0.822,0-1.725,0.74-2.184,1.402l-0.033-0.031c0.064-0.474,0.793-5.278,0.84-5.593c0.031-0.189,0.062-0.41,0.062-0.488
					c0-0.079-0.078-0.143-0.191-0.143c-0.107,0-0.219,0.031-0.41,0.08c-1.105,0.268-1.707,0.108-1.707,0.441
					c0,0.33,1.123-0.064,1.123,0.424c0,0.174-0.018,0.33-0.111,0.914L475.779,114.404z"/>
				<path fill="#FFFFFF" d="M484.748,109.89c0-0.189-0.33-0.914-0.568-0.914c-0.236,0-0.648,0.582-0.648,0.819
					c0,0.188,0.332,0.912,0.568,0.912C484.338,110.708,484.748,110.125,484.748,109.89 M483.342,117.968
					c0-0.982,0.996-5.244,0.996-5.338c0-0.077,0-0.171-0.223-0.171c-0.125,0-0.301,0.108-0.555,0.156
					c-1.012,0.172-1.676,0.03-1.676,0.314c0,0.44,1.203-0.032,1.203,0.476c0,0.428-0.791,3.532-0.791,5.035
					c0,0.396,0.143,0.994,0.648,0.994c0.869,0,1.787-1.548,1.787-1.863c0-0.095-0.078-0.158-0.156-0.158
					c-0.223,0-0.602,0.966-0.98,0.966C483.404,118.379,483.342,118.287,483.342,117.968"/>
				<path fill="#FFFFFF" d="M488.072,122.255c-1.094,0-2.344-0.441-2.344-1.717c0-0.615,0.213-1.072,0.854-1.213
					c0.41,0.395,3.26,0.834,3.26,1.938C489.842,121.515,489.604,122.255,488.072,122.255 M488.34,112.489
					c-1.234,0-2.277,1.339-2.277,2.835c0,1.197,0.553,1.686,0.695,1.844c-0.139,0.189-0.648,0.52-0.648,0.975
					c0,0.633,0.236,0.742,0.236,0.869c0,0.158-1.422,0.299-1.422,1.542c0,1.671,1.676,2.017,3.053,2.017
					c1.123,0,2.783-0.125,2.783-1.622c0-0.913-0.646-1.292-1.418-1.56c-1.922-0.662-2.629-0.803-2.629-1.496
					c0-0.426,0.303-0.488,0.504-0.488c0.332,0,0.633,0.078,0.965,0.078c1.422,0,2.295-1.37,2.295-2.678
					c0-1.088-0.365-1.26-0.365-1.465c0-0.033,0.047-0.033,0.096-0.033c0.078,0,0.412,0.176,0.932,0.176
					c0.191,0,0.648-0.096,0.648-0.488c0-0.166-0.076-0.395-0.33-0.395c-0.143,0-0.35,0.082-0.57,0.165
					c-0.236,0.099-0.475,0.181-0.711,0.181c-0.443,0-0.602-0.109-0.809-0.236C489.162,112.599,488.924,112.489,488.34,112.489
					 M488.072,117.134c-0.887,0-1.045-1.008-1.045-1.7c0-2.425,1.186-2.456,1.535-2.456c0.662,0,0.9,0.96,0.9,1.652
					C489.463,115.531,489.273,117.134,488.072,117.134"/>
				<path fill="#FFFFFF" d="M491.473,117.705c0,0.985,0.363,1.84,1.453,1.84c1.236,0,2.201-0.903,2.818-1.809l0.031,0.031
					c-0.047,0.646,0.221,1.653,0.949,1.653c0.838,0,1.598-1.589,1.598-1.763c0-0.189-0.111-0.156-0.223-0.156
					c-0.252,0-0.475,0.939-0.916,0.939c-0.111,0-0.395,0.02-0.395-0.722c0-1.775,0.791-5.31,0.791-5.42s-0.08-0.142-0.145-0.142
					c-0.189,0-0.457,0.66-0.695,0.66c-0.205,0-0.41-0.077-0.617-0.172c-0.205-0.078-0.41-0.157-0.617-0.157
					C493.387,112.489,491.473,115.851,491.473,117.705 M492.484,117.438c0-1.665,1.408-4.46,2.928-4.46
					c0.727,0,0.918,0.392,0.918,0.61c0,0.459-0.602,3.168-0.602,3.42c0,0.221-0.918,1.733-2.152,1.733
					C492.516,118.742,492.484,117.689,492.484,117.438"/>
				<path fill="#FFFFFF" d="M504.871,114.3c0-1.071-0.395-1.812-1.52-1.812c-1.012,0-2.057,0.944-2.625,1.812h-0.031
					c0-0.395,0.158-1.812-0.711-1.812c-0.715,0-1.521,1.181-1.521,1.827c0,0.111,0.049,0.188,0.16,0.188
					c0.314,0,0.332-0.929,1.043-0.929c0.301,0,0.332,0.316,0.332,0.978c0,0.566-0.68,4.127-0.68,4.6
					c0,0.236,0.127,0.221,0.318,0.221h0.584c0.158,0,0.172-0.174,0.205-0.474l0.379-2.456c0.111-0.977,0.602-3.214,1.898-3.214
					c1.377,0,1.17,0.976,1.17,1.181c0,0.252-0.33,3.387-0.33,3.986c0,0.85,0.236,1.039,0.648,1.039c0.916,0,1.883-1.307,1.883-1.67
					c0-0.078-0.08-0.094-0.16-0.094c-0.205,0-0.584,0.852-1.105,0.852c-0.174,0-0.238-0.082-0.238-0.458
					C504.57,117.325,504.871,115.34,504.871,114.3"/>
			</g>
		</g>
		<path fill="#FFFFFF" d="M512,126H312v-22h200V126z M313,125h198v-20H313V125z"/>
	</g>
</g>
<g id="txt">
</g>
</svg>
