<?xml version="1.0" encoding="utf-8"?>
<!-- Generator: Adobe Illustrator 16.0.0, SVG Export Plug-In . SVG Version: 6.00 Build 0)  -->
<!DOCTYPE svg PUBLIC "-//W3C//DTD SVG 1.1//EN" "http://www.w3.org/Graphics/SVG/1.1/DTD/svg11.dtd">
<svg version="1.1" id="Layer_1" xmlns="http://www.w3.org/2000/svg" xmlns:xlink="http://www.w3.org/1999/xlink" x="0px" y="0px"
	 width="729.819px" height="396.453px" viewBox="0 0 729.819 396.453" enable-background="new 0 0 729.819 396.453"
	 xml:space="preserve">
<g id="bg">
</g>
<g id="images">
	<g>
		<g>
			<g>
				<path fill="#009425" d="M162.842,192.799c0.382,21.184-7.559,42.486-23.724,58.672c-16.188,16.17-37.486,24.106-58.673,23.729
					c-0.378-21.207,7.512-42.527,23.7-58.695C120.31,200.313,141.637,192.422,162.842,192.799z"/>
				<path fill="#00C630" d="M162.842,192.799c0.382,21.184-7.559,42.486-23.724,58.672c-16.188,16.17-37.486,24.106-58.673,23.729
					L162.842,192.799z"/>
				<path fill="#00C630" d="M4.013,192.799c-0.375,21.184,25.994,35.859,42.156,52.047c16.191,16.166,19.065,30.731,40.246,30.354
					c0.383-21.209-7.513-42.527-23.702-58.697C46.544,200.313,25.22,192.422,4.013,192.799z"/>
				<path fill="#009425" d="M4.013,192.799c-0.375,21.184,7.563,42.486,23.73,58.672c16.187,16.17,37.49,24.106,58.672,23.729
					L4.013,192.799z"/>
				<path fill="#00C630" d="M38.741,145.428c-8.427,19.44,10.272,42.292,19.045,63.418c8.805,21.114,5.994,36.446,25.725,44.168
					c8.435-19.462,9.264-42.188,0.461-63.303C75.197,168.583,58.492,153.159,38.741,145.428z"/>
				<path fill="#009425" d="M38.741,145.428c-8.427,19.44-9.203,42.157-0.431,63.285c8.804,21.117,25.47,36.582,45.201,44.303
					L38.741,145.428z"/>
				<path fill="#009425" d="M128.195,145.428c8.425,19.44,9.203,42.157,0.431,63.285c-8.805,21.117-25.472,36.582-45.197,44.303
					c-8.438-19.461-9.268-42.188-0.463-63.303C91.74,168.583,108.446,153.159,128.195,145.428z"/>
				<path fill="#009425" d="M128.195,145.428c8.425,19.44,9.203,42.157,0.431,63.285c-8.805,21.117-25.472,36.582-45.197,44.303
					L128.195,145.428z"/>
			</g>
			<g>
				<path fill="#5E3323" d="M463.298,278.619H433.58c-2.614,0-4.753,2.114-4.753,4.758v23.223c0,2.615,2.139,4.758,4.753,4.758
					h29.718c2.612,0,4.756-2.143,4.756-4.758v-23.225C468.054,280.733,465.91,278.619,463.298,278.619z M460.924,304.221h-24.967
					v-18.47h24.967V304.221z"/>
				<path fill="#5E3323" d="M503.572,321.126v34.205c0,5.254-4.256,9.51-9.511,9.51h-92.309c-5.254,0-9.509-4.256-9.509-9.51
					v-34.205H503.572z"/>
				<path fill="#784335" d="M503.572,303.507v19.547c0,5.248-4.256,9.504-9.511,9.504h-92.309c-5.256,0-9.509-4.256-9.509-9.504
					v-19.547c0-5.254,4.253-9.508,9.509-9.508h92.309C499.316,294.001,503.572,298.253,503.572,303.507z"/>
				<path fill="#FF9500" d="M458.711,328.044v8.035c0,2.117-1.712,3.846-3.828,3.846H440.93c-2.119,0-3.826-1.729-3.826-3.846
					v-8.035c0-2.117,1.707-3.854,3.826-3.854h13.953C456.999,324.193,458.711,325.927,458.711,328.044z"/>
				<path fill="#5E3323" d="M418.985,364.841h-8.92v-72.315c0-2.228,1.807-4.028,4.032-4.028h0.858c2.225,0,4.029,1.803,4.029,4.028
					L418.985,364.841L418.985,364.841z"/>
				<path fill="#5E3323" d="M485.741,364.841h-8.917v-72.315c0-2.228,1.805-4.028,4.029-4.028h0.857
					c2.227,0,4.027,1.803,4.027,4.028v72.315H485.741z"/>
			</g>
			<polyline fill="#E9B225" points="223.867,146.602 217.19,149.987 239.094,192.231 244.918,195.438 245.774,188.842 			"/>
			<g>
				<path fill="#004456" d="M550.451,232.612l73.776-0.075l-0.74,34.702h-83.715v83.155h-37.74v-89.928
					c0-11.151,8.001-20.694,18.982-22.646L550.451,232.612z"/>
				
					<rect x="581.219" y="119.756" transform="matrix(0.9998 0.0188 -0.0188 0.9998 2.5713 -11.1118)" fill="#BD7844" width="22.022" height="22.871"/>
				<path fill="#BD7844" d="M568.146,123.144c3.631,5.476,9.428,9.466,16.388,10.674c13.537,2.345,26.39-6.713,28.711-20.229
					l4.423-25.525l-23.301-14.222l-25.617,5.723l-1.895,10.884l-2.553,14.658c-0.251,1.46-0.371,2.9-0.331,4.346
					c-0.018,1.481,0.112,2.898,0.384,4.297c0.333,2.022,0.946,3.967,1.785,5.797C566.689,120.809,567.369,122.034,568.146,123.144z"
					/>
				<path fill="#934433" d="M486.099,361.128v4.125h53.894v-19.994h-38.053C493.192,345.259,486.099,352.357,486.099,361.128z"/>
				<path fill="#00A34A" d="M624.229,251.557l-61.882-19.021v-64.049c0-8.059,3.257-15.335,8.534-20.61
					c2.853-2.855,6.322-5.136,10.178-6.609c3.23-1.262,6.75-1.953,10.436-1.953c4.11,0,8.036,0.857,11.575,2.404
					c10.345,4.494,17.597,14.783,17.597,26.767L624.229,251.557z"/>
				<g>
					<path fill="#66C892" d="M602.92,160.099c-1.839-2.857-4.797-5.003-8.396-5.764c-7.213-1.53-14.277,3.084-15.802,10.28
						l-7.431,33.956l-20.366,13.255c-6.178,4.021-7.925,12.272-3.904,18.446c4.024,6.151,12.275,7.896,18.448,3.903l18.315-11.938
						l8.259-5.375c1.812-1.178,3.226-2.969,3.679-5.082c0.004-0.01,0.006-0.028,0.01-0.038l5.04-22.659l4.013-18.953
						C605.543,166.53,604.782,162.957,602.92,160.099z"/>
					<path fill="#BD7844" d="M556.819,239.792l-7.021,4.551c-0.506,0.32-1.021,0.619-1.554,0.88
						c-3.54,1.69-7.583,1.682-11.021,0.168c-2.321-0.994-4.39-2.668-5.872-4.937c-2.321-3.582-2.719-7.869-1.412-11.637
						c0.916-2.705,2.735-5.135,5.32-6.822l7.011-4.574l2.602,3.998l0.112,0.183l9.034,13.89l0.913,1.407L556.819,239.792z"/>
					<polygon fill="#E0F3FF" points="567.761,232.694 562.492,236.123 556.832,239.813 556.819,239.792 554.93,236.901 
						554.02,235.492 544.984,221.602 544.873,221.419 542.271,217.421 549.245,212.891 553.181,210.324 567.646,232.516 					"/>
				</g>
			</g>
			<g>
				<polygon fill="#2D3640" points="557.671,365.974 538.815,364.841 569.121,276.274 586.369,282.18 				"/>
				<polygon fill="#2D3640" points="627.876,365.974 646.986,364.841 616.424,276.274 599.182,282.18 				"/>
			</g>
			<path fill="#2BA59C" d="M681.714,167.375l4.005,2.219c10.38,5.755,14.13,18.829,8.374,29.208l-54.536,98.385
				c-5.756,10.379-18.831,14.129-29.208,8.375l-4.003-2.221c-10.379-5.75-14.131-18.826-8.375-29.207l54.536-98.387
				C658.259,165.371,671.338,161.626,681.714,167.375z"/>
			<g>
				<rect x="258.972" y="234.417" fill="#8D4514" width="198.694" height="24.838"/>
				<rect x="191.453" y="200.807" fill="#DC986A" width="332.826" height="23.772"/>
				<rect x="237.237" y="231.315" fill="#B4683B" width="24.838" height="133.495"/>
				<rect x="454.562" y="231.315" fill="#B4683B" width="21.732" height="133.495"/>
				<rect x="237.237" y="225.104" fill="#883800" width="239.055" height="9.312"/>
				<rect x="191.505" y="212.696" fill="#AF5E2C" width="332.79" height="11.886"/>
			</g>
			<g>
				<polygon fill="#AFAFAF" points="133.553,273.071 130.7,296.916 122.58,364.841 66.99,364.841 56.016,273.071 				"/>
				<polygon fill="#E1E1E1" points="81.421,273.071 81.421,364.841 43.213,364.841 35.098,296.916 32.244,273.071 				"/>
				<polygon fill="#AFAFAF" points="133.553,273.071 130.7,296.916 35.098,296.916 32.244,273.071 				"/>
				<rect x="25.853" y="257.865" fill="#E1E1E1" width="113.603" height="26.911"/>
			</g>
			<rect x="177.281" y="305.416" fill="#E6F3FF" width="37.751" height="44.975"/>
			
				<rect x="133.439" y="121.883" transform="matrix(-0.9998 0.0191 -0.0191 -0.9998 291.4131 263.8535)" fill="#FFC28B" width="22.015" height="22.869"/>
			<path fill="#FFC28B" d="M168.522,125.285c-3.632,5.477-9.425,9.468-16.386,10.679c-13.535,2.344-29.599-7.946-31.917-21.462l0,0
				l27.688-39.317l20.012,6.523l4.45,25.54c0.25,1.46,0.37,2.9,0.333,4.348c0.012,1.48-0.121,2.897-0.388,4.293
				c-0.334,2.026-0.946,3.972-1.784,5.798C169.976,122.957,169.304,124.18,168.522,125.285z"/>
			<path fill="#934433" d="M230.957,361.128v4.125h-53.895v-19.994h38.057C223.862,345.259,230.957,352.357,230.957,361.128z"/>
			<path fill="#E6F3FF" d="M93.363,244.846l64.337-7.209l11.882-62.941c1.492-7.92-0.358-15.673-4.564-21.836
				c-2.272-3.333-5.26-6.22-8.772-8.382c-2.946-1.838-6.273-3.168-9.894-3.851c-4.04-0.765-8.052-0.649-11.819,0.211
				c-10.998,2.496-20.031,11.268-22.253,23.038L93.363,244.846z"/>
			<path fill="#E6F3FF" d="M215.032,260.458v44.957h-37.751v-38.185l-89.011-0.642l8.716-37.256h56.429l13.195,3.283l29.429,5.205
				C207.022,239.772,215.032,249.307,215.032,260.458z"/>
			<g>
				<g>
					<rect x="69.588" y="224.58" fill="#2D3640" width="13.843" height="58.711"/>
					<path fill="#E55730" d="M76.627,242.225h-4.58c-11.863,0-21.484-9.617-21.484-21.483V138.35
						c0-11.864,9.62-21.486,21.484-21.486h4.58c11.865,0,21.488,9.619,21.488,21.486v82.392
						C98.116,232.608,88.494,242.225,76.627,242.225z"/>
				</g>
				<g>
					<rect x="84.469" y="324.427" fill="#2D3640" width="83.207" height="16.645"/>
					<rect x="153.414" y="332.697" fill="#2D3640" width="14.26" height="32.145"/>
					<rect x="84.469" y="332.697" fill="#2D3640" width="14.266" height="32.145"/>
					<rect x="117.75" y="295.901" fill="#2D3640" width="14.265" height="68.464"/>
				</g>
				<path fill="#E55730" d="M182.914,279.348v4.577c0,11.867-9.617,21.488-21.485,21.488H90.919
					c-11.863,0-21.484-9.619-21.484-21.488v-4.577c0-11.863,9.62-21.484,21.484-21.484h70.508
					C173.296,257.865,182.914,267.483,182.914,279.348z"/>
			</g>
			<g>
				<path fill="#FFFFFF" d="M130.032,172.202c-1.495-3.055-1.803-6.697-0.595-10.167c2.429-6.962,10.028-10.624,16.971-8.204
					l32.904,11.201l21.881-10.581c6.632-3.207,18.22,20.79,11.609,24.004l-28.567,13.795c-1.948,0.943-4.207,1.23-6.252,0.52
					c-0.014-0.002-0.026-0.01-0.037-0.012l-40.298-13.771C134.179,177.78,131.518,175.274,130.032,172.202z"/>
				<path fill="#FFC28B" d="M222.079,173.959l7.527-3.65c0.538-0.268,1.057-0.555,1.555-0.879c3.28-2.147,5.361-5.616,5.846-9.343
					c0.346-2.507-0.012-5.135-1.188-7.581c-1.862-3.838-5.332-6.398-9.23-7.225c-2.789-0.616-5.804-0.319-8.593,1.023l-7.536,3.638
					l-0.477,20.44L222.079,173.959z"/>
				<polygon fill="#D1F2FF" points="210.352,179.657 222.092,173.977 222.079,173.959 210.46,149.94 198.743,155.603 
					210.254,179.467 				"/>
			</g>
			<path fill="#2BC7CA" d="M641.48,281.237v4.58c0,11.865-9.618,21.483-21.481,21.483h-70.513c-11.863,0-21.479-9.614-21.479-21.483
				v-4.58c0-11.868,9.615-21.483,21.479-21.483h70.512C631.862,259.753,641.48,269.369,641.48,281.237z"/>
			<g>
				<rect x="267.524" y="56.384" fill="#883800" width="102.221" height="80.238"/>
				<rect x="279.41" y="67.917" fill="#F5FFFA" width="78.455" height="56.816"/>
				<g>
					<rect x="291.301" y="82.062" fill="#B0D4E2" width="54.679" height="9.388"/>
					<rect x="291.301" y="100.96" fill="#B0D4E2" width="54.679" height="9.51"/>
				</g>
			</g>
			<g>
				<rect x="398.35" y="13" fill="#B4683B" width="78.38" height="104.601"/>
				<rect x="410.167" y="24.886" fill="#F5FFFA" width="52.3" height="80.831"/>
				<rect x="422.051" y="58.175" fill="#B0D4E2" width="30.639" height="9.505"/>
				<rect x="422.051" y="36.776" fill="#B0D4E2" width="30.639" height="9.508"/>
				<rect x="422.051" y="79.564" fill="#B0D4E2" width="11.885" height="9.51"/>
				<path fill="#246D93" d="M457.71,89.075c0,5.252-4.259,9.507-9.508,9.507c-5.254,0-9.511-4.255-9.511-9.507
					c0-5.255,4.259-9.51,9.511-9.51C453.453,79.564,457.71,83.82,457.71,89.075z"/>
			</g>
			<g>
				<rect x="647.97" y="34.396" fill="#883800" width="78.382" height="104.602"/>
				<rect x="659.785" y="46.284" fill="#F5FFFA" width="52.303" height="80.828"/>
				<g>
					<rect x="671.672" y="81.945" fill="#B0D4E2" width="30.639" height="9.502"/>
					<rect x="671.672" y="60.547" fill="#B0D4E2" width="30.639" height="9.506"/>
					<rect x="671.672" y="103.338" fill="#B0D4E2" width="30.903" height="9.507"/>
				</g>
			</g>
			<rect x="215.223" y="196.053" fill="#D1F2FF" width="66.563" height="4.756"/>
		</g>
	</g>
</g>
<g id="txt">
</g>
<path fill="#D0A785" d="M687.035,347.23c1.563-0.332,3.19-1.174,4.626-2.385c1.396-1.174,2.605-2.691,3.398-4.42
	c0.105-0.232,0.381-0.334,0.613-0.229s0.335,0.381,0.229,0.613c-0.853,1.857-2.149,3.486-3.643,4.742
	c-1.477,1.244-3.152,2.133-4.787,2.529C687.32,347.802,687.175,347.519,687.035,347.23z"/>
<path fill-rule="evenodd" clip-rule="evenodd" fill="#5F4038" d="M120.219,114.502c13.812-2.054,21.887-12.524,32.565-28.893
	c6.561,4.289,21.624,13.651,30.911-3.227c-9.325,1.639-13.315-12.679-28.907-16.527c-16.2-4-34.125,6.427-38.145,23.777
	C115.054,96.495,116.561,105.044,120.219,114.502z"/>
<path fill="#FFC28B" d="M137.22,115.185l-0.979,0.17c-2.533,0.441-4.947-1.256-5.383-3.791l-0.88-5.063
	c-0.437-2.536,1.26-4.946,3.792-5.383l0.98-0.169c2.535-0.441,4.945,1.259,5.388,3.792l0.875,5.063
	C141.455,112.336,139.755,114.747,137.22,115.185z"/>
<path fill="#BD7844" d="M569.138,111.226c0,0-14.815,1.446-8.802-7.85l9.164-12.159L569.138,111.226z"/>
<path fill="#FFC28B" d="M168.772,113.226c0,0,14.815,1.446,8.802-7.85l-9.164-12.159L168.772,113.226z"/>
<path fill-rule="evenodd" clip-rule="evenodd" fill="#231F20" d="M612.31,116.854c-11.578-5.267-15.967-16.896-21.123-34.599
	c-11.583,5.61-21.818-7.328-29.7,6.971c0.362-19.34,18.361-25.938,33.018-25.679c15.229,0.268,28.263,14.261,27.329,31.243
	C621.464,101.507,617.946,109.025,612.31,116.854z"/>
<path fill="#BD7844" d="M595.625,104.893l0.964-5.047c0.486-2.525,2.927-4.183,5.453-3.697l0.977,0.187
	c2.525,0.48,4.18,2.92,3.699,5.448l-0.971,5.047c-0.479,2.526-2.924,4.182-5.447,3.696l-0.977-0.188
	C596.796,109.857,595.138,107.417,595.625,104.893z"/>
</svg>
